<svg    id="ecg-svg"
        xmlns="http://www.w3.org/2000/svg"
        xml:space="preserve"
        width="100%"
        height="100%"
        version="1.1"
        style="shape-rendering:geometricPrecision;
        text-rendering:geometricPrecision;
        image-rendering:optimizeQuality; fill-rule:evenodd; clip-rule:evenodd"
viewBox="0 0 19790.18 27045.96">
 <defs>

  <style type="text/css">
   <![CDATA[
    @font-face { font-family:"Segoe UI Semibold";font-variant:normal;font-style:normal;font-weight:600;src:url("#FontID5") format(svg)}
    @font-face { font-family:"Arial";font-variant:normal;font-style:normal;font-weight:bold;src:url("#FontID2") format(svg)}
    @font-face { font-family:"Segoe UI";font-variant:normal;font-style:normal;font-weight:normal;src:url("#FontID1") format(svg)}
    @font-face { font-family:"Segoe UI Light";font-variant:normal;font-style:normal;font-weight:300;src:url("#FontID0") format(svg)}
    .str12 {stroke-width:20.4;stroke-miterlimit:22.9256}
    .str15 {stroke-width:15.43;stroke-miterlimit:22.9256}
    .str10 {stroke-width:13.6;stroke-miterlimit:22.9256}
    .str30 {stroke-width:24;stroke-miterlimit:22.9256}
    .str17 {stroke-width:21.6;stroke-miterlimit:22.9256}
    .str28 {stroke-width:29.29;stroke-miterlimit:22.9256}
    .str27 {stroke-width:19.53;stroke-miterlimit:22.9256}
    .str6 {stroke-width:12;stroke-miterlimit:22.9256}
    .str29 {stroke-width:19.64;stroke-miterlimit:22.9256}
    .str4 {stroke-width:12.27;stroke-miterlimit:22.9256}
    .str7 {stroke-width:12.3;stroke-miterlimit:22.9256}
    .str21 {stroke:#E31E24;stroke-width:98.48;stroke-miterlimit:22.9256}
    .str20 {stroke:#E31E24;stroke-width:98.48;stroke-miterlimit:22.9256}
    .str22 {stroke:#00A900;stroke-width:73.86;stroke-miterlimit:22.9256}
    .str3 {stroke:#2B2A29;stroke-width:49.24;stroke-miterlimit:22.9256}
    .str14 {stroke:blue;stroke-width:49.24;stroke-miterlimit:22.9256}
    .str25 {stroke:#2B2A29;stroke-width:34.73;stroke-miterlimit:22.9256}
    .str23 {stroke:#2B2A29;stroke-width:34.73;stroke-miterlimit:22.9256}
    .str26 {stroke:#2B2A29;stroke-width:34.76;stroke-miterlimit:22.9256}
    .str24 {stroke:#2B2A29;stroke-width:34.76;stroke-miterlimit:22.9256}
    .str13 {stroke:#2B2A29;stroke-width:19.7;stroke-miterlimit:22.9256}
    .str0 {stroke:#2B2A29;stroke-width:19.7;stroke-miterlimit:22.9256}
    .str9 {stroke:#CF3123;stroke-width:19.7;stroke-miterlimit:22.9256}
    .str8 {stroke:#CD2628;stroke-width:19.7;stroke-miterlimit:22.9256}
    .str1 {stroke:#2B2A29;stroke-width:19.7;stroke-miterlimit:22.9256}
    .str5 {stroke:#2B2A29;stroke-width:7.5;stroke-miterlimit:22.9256}
    .str11 {stroke:#CF3123;stroke-width:7.5;stroke-miterlimit:22.9256}
    .str16 {stroke:#CD2628;stroke-width:7.5;stroke-miterlimit:22.9256}
    .str18 {stroke:blue;stroke-width:7.5;stroke-miterlimit:22.9256}
    .str19 {stroke:#2B2A29;stroke-width:19.7;stroke-miterlimit:22.9256;stroke-dasharray:196.951047 98.475523}
    .str2 {stroke:#2B2A29;stroke-width:17.36;stroke-miterlimit:22.9256;stroke-dasharray:86.806174 86.806174}
    .fil1 {fill:none}
    .fil8 {fill:#FEFEFE}
    .fil13 {fill:#FEFEFE}
    .fil14 {fill:#FEFEFE}
    .fil0 {fill:#D9DADA}
    .fil6 {fill:#2B2A29}
    .fil4 {fill:#2B2A29}
    .fil2 {fill:#F08683}
    .fil7 {fill:#CF3123}
    .fil5 {fill:#CD2628}
    .fil10 {fill:#CD2628}
    .fil11 {fill:blue}
    .fil12 {fill:#FEFEFE}
    .fil9 {fill:#2B2A29;fill-rule:nonzero}
    .fil3 {fill:#2B2A29;fill-rule:nonzero}
    .fnt17 {font-weight:bold;font-size:256.19px;font-family:'Arial'}
    .fnt21 {font-weight:bold;font-size:312.66px;font-family:'Arial'}
    .fnt12 {font-weight:300;font-size:347.4px;font-family:'Segoe UI Light'}
    .fnt19 {font-weight:bold;font-size:367.78px;font-family:'Arial'}
    .fnt6 {font-weight:bold;font-size:367.78px;font-family:'Arial'}
    .fnt20 {font-weight:bold;font-size:382.14px;font-family:'Arial'}
    .fnt16 {font-weight:bold;font-size:384.29px;font-family:'Arial'}
    .fnt3 {font-weight:normal;font-size:416.88px;font-family:'Segoe UI'}
    .fnt5 {font-weight:normal;font-size:416.88px;font-family:'Segoe UI'}
    .fnt10 {font-weight:normal;font-size:416.88px;font-family:'Segoe UI'}
    .fnt14 {font-weight:normal;font-size:416.88px;font-family:'Segoe UI'}
    .fnt11 {font-weight:300;font-size:486.36px;font-family:'Segoe UI Light'}
    .fnt8 {font-weight:600;font-size:486.36px;font-family:'Segoe UI Semibold'}
    .fnt18 {font-weight:bold;font-size:551.67px;font-family:'Arial'}
    .fnt4 {font-weight:bold;font-size:551.67px;font-family:'Arial'}
    .fnt9 {font-weight:normal;font-size:555.84px;font-family:'Segoe UI'}
    .fnt2 {font-weight:300;font-size:609.89px;font-family:'Segoe UI Light'}
    .fnt0 {font-weight:300;font-size:611.8px;font-family:'Segoe UI Light'}
    .fnt13 {font-weight:300;font-size:611.8px;font-family:'Segoe UI Light'}
    .fnt1 {font-weight:300;font-size:625.32px;font-family:'Segoe UI Light'}
    .fnt7 {font-weight:600;font-size:833.76px;font-family:'Segoe UI Semibold'}
    .fnt15 {font-weight:600;font-size:833.76px;font-family:'Segoe UI Semibold'}
   ]]>
  </style>
 </defs>
 <g id="Layer_x0020_1">
  <metadata id="CorelCorpID_0Corel-Layer"/>
  <g id="_2511210430976">
   <path class="fil0" d="M755.75 3123.77c551.78,-820.17 2055.23,-725.86 2440.77,409.29l0 21927.83c-1071.07,2.61 -1593.97,0 -2440.65,0l-0.12 -22337.12z"/>
   <path class="fil1" d="M785.73 2919.08c213.92,-189.93 556.12,-360.3 1045.5,-353.41 789.31,11.12 1102.08,383.64 1318.12,657.45"/>
   <path class="fil1" d="M733.18 11371.92c381.18,-646.48 1137.68,-1342.37 2463.34,-1597.3"/>
  </g>
  <g id="_2511210440416">
   <path class="fil0" d="M3196.52 3533.07c71.4,65.73 201.1,284.94 326.43,278.18 182.69,-9.83 314.32,-279.61 582.21,-267.78 106.2,4.7 260.81,108.51 294.33,177.06l0 21741.53c-523.99,0 -826.4,-1.66 -1202.97,-1.66l0 -21927.33z"/>
   <path class="fil1" d="M3155.9 3458.43c122.65,154.8 208.39,272.56 367.04,262.53 231.27,-14.61 257.85,-159.25 503.8,-177.43 110.3,-8.15 248.56,16.91 372.74,109.92"/>
   <path class="fil1" d="M3196.52 9933.97c356.7,-68.8 755.16,-105.15 1199.25,-99.21 1.24,0.02 2.48,0.04 3.71,0.07"/>
  </g>
  <g id="_2511210449120">
   <path class="fil0" d="M4399.48 3737.72c257.64,148.44 293.44,944.28 313.44,1080.94 42.32,-141.57 336.09,-3364.18 447.04,-4057.33 17.1,38.95 -9.65,2886.59 6.36,3629.48l0 21067.1c-437.12,2.18 -447.04,2.52 -766.84,4.16l0 -21724.34z"/>
   <path class="fil1" d="M4399.48 3026.19c145.82,112.35 272.23,321.07 311.16,683.97 103.03,-527.75 366.98,-2550.37 449.62,-2950.32"/>
   <path class="fil1" d="M4399.48 9385.37c373.8,9.23 567.41,633.05 760.35,1309.47"/>
  </g>
  <path class="fil0" d="M5166.32 796.69c107.56,844.74 433.28,5304.42 485.86,5763.87 331.81,-1184.56 378.26,-1931.28 543.03,-2458.95 0,2745.59 -36.41,18723.7 18.83,21362.06 -405.55,-1.01 -564.98,-0.56 -1047.72,-3.07l0 -24663.9z"/>
  <path class="fil1" d="M5159.83 5969.22c224.37,940.21 447.85,1965.44 952.76,2019.46 33.53,3.58 64.15,2.39 93.01,-1.77"/>
  <path class="fil0" d="M6195.19 3869.51c113.68,-329.28 151.06,-775.93 312.06,-778.2 168.1,-2.36 199.66,520.62 234.51,632.93 82.64,266.32 226.23,308.41 441.71,199.84l0 21536.46c-462.04,0 -386.9,-0.32 -988.28,-0.32l0 -21590.71z"/>
  <path class="fil1" d="M6205.6 12014c120.28,-17.23 210.24,-85.83 354.49,-77.22 242.11,14.45 392.48,158.46 623.38,177.45"/>
  <path class="fil0" d="M7193.11 3915.64c173.79,-211.55 331.49,-470.27 417.73,-463.78 185.13,13.9 169.94,588.12 763.85,400.65l-12.02 21608.02c-666.3,0 -361.44,-0.21 -1179.19,-0.21l9.63 -21544.68z"/>
  <path class="fil1" d="M7183.47 12132.85c26.95,2.22 55,2.73 84.42,1.14 338.16,-18.29 513.26,-2395.78 1101.12,-4466.71"/>
  <g id="_2511210453088">
   <path class="fil0" d="M8366.54 3845.18c931.77,-83.98 988.84,-338.23 1201.47,-477.08l0 22092.35c-416.04,0 -749.52,-2.56 -1205.35,-2.56l3.88 -21612.71z"/>
   <path class="fil1" d="M8366.54 3723.4c13.5,0.79 27.45,0.61 41.87,-0.66 270.58,-23.7 769.13,-69.31 1096.12,-305.79 22.12,-15.99 43.18,-32.29 63.43,-48.81"/>
   <path class="fil1" d="M8369.02 9149.56c169.22,-489.45 372.65,-958.05 624.02,-1353.58 202.27,-318.27 373.99,-462.83 582.91,-565.74"/>
  </g>
  <g id="_2511210454752">
   <path class="fil0" d="M9568.01 3347.7c250.57,-229.41 548.53,-833.11 1328.7,-861.02 528.4,-18.9 805.37,152.2 1175.14,446.77l0 22522.35c-1325.63,0 -1507.96,2.43 -2503.84,2.43l0 -22110.53z"/>
   <path class="fil1" d="M9567.96 3147.64c340.31,-280.61 449.01,-626.29 1442.55,-667.23 513.83,-21.18 818.28,151.3 1061.34,349.9"/>
   <path class="fil1" d="M9575.95 7047.9c136.44,-67.87 288.73,-117.81 475.75,-186.94 242.21,-89.53 729.84,-239.04 950.28,-240.66 354.39,-2.63 707,451.61 1046.24,899.31"/>
  </g>
  <g id="_2511210453408">
   <path class="fil2" d="M12071.97 2946.26c253.26,221.41 436.56,576.45 653.79,655.92 289.36,105.89 486.31,13.19 712.07,-57.05l7.24 21909.55c-734.53,0 -672.15,1.23 -1373.09,1.23l0 -22509.65z"/>
   <path class="fil1" d="M12071.98 2946.23c306.17,247.61 515.42,536.03 920.47,537.29 205.74,0.64 337.88,-34.99 447.37,-85.1"/>
   <path class="fil1" d="M12048.21 7611.53c288.99,377.44 568.34,750.21 831.02,837.77 134.89,44.96 299.3,-164.66 565.83,-178.56"/>
  </g>
  <path class="fil0" d="M15947.25 3458.14c29.79,14.69 2.22,4.78 28.64,19.11 711.4,386.46 1105.57,-126.08 3023.56,221.36 44.58,8.07 136.01,-42.98 171.69,-53.22 38.77,-11.12 85.77,-136.63 111.45,-169.6 184.83,-237.29 235.44,-537.13 367.22,-561.11l0 22537.97c-1997.41,0 -1997.41,2.5 -3844.73,2.5 -0.28,-813.45 142.17,-21468.46 142.17,-21997.02z"/>
  <path class="fil0" d="M15885.24 25455.03l61.65 -21997.12c-269.85,-135.16 -745.71,-375.26 -1235.85,-328.28 -453.03,43.41 -778.34,107.38 -1265.22,418.53l-11.88 21906.9c1000.3,0 1193.42,-0.04 2451.3,-0.04z"/>
  <path class="fil1 str0" d="M7193.11 3915.64c217.17,-127.46 161.65,-435.24 417.73,-463.74 243.94,-27.16 142.2,629.5 755.7,393.28"/>
  <path class="fil1 str1" d="M201.74 3740.65c153.68,-16.96 305.37,-82.74 392.01,-311.92 35.48,-93.86 88.72,-200.06 162,-304.96"/>
  <line class="fil1 str2" x1="4399.48" y1="3810.23" x2="4399.48" y2= "25458.9" />
  <line class="fil1 str2" x1="13437.82" y1="3545.12" x2="13437.82" y2= "25455.03" />
  <line class="fil1 str2" x1="6195.19" y1="4191.31" x2="6195.19" y2= "26450.61" />
  <line class="fil1 str2" x1="7183.47" y1="4006.43" x2="7183.47" y2= "25460.4" />
  <line class="fil1 str2" x1="8366.54" y1="3934.92" x2="8366.54" y2= "26450.61" />
  <line class="fil1 str2" x1="755.87" y1="3213.33" x2="755.87" y2= "25461.74" />
  <line class="fil1 str2" x1="9568.01" y1="3457.82" x2="9568.01" y2= "25458.96" />
  <line class="fil1 str2" x1="12071.85" y1="3035.99" x2="12071.85" y2= "25456.03" />
  <line class="fil1 str2" x1="19636.61" y1="2931.23" x2="19636.61" y2= "25453.28" />
  <line class="fil1 str2" x1="15947.24" y1="3547.86" x2="15947.24" y2= "7047.44" />
  <line class="fil1 str2" x1="18999.42" y1="3788.34" x2="18999.42" y2= "12329.97" />
  <line class="fil1 str2" x1="3196.52" y1="3597.26" x2="3196.52" y2= "25461.06" />
  <path class="fil3" d="M756.03 14115.97l68.79 -51.35 0 102.7 -68.79 -51.35zm2372.6 9.83l-2304.72 0 0 -19.66 2304.72 0 0 19.66zm67.89 -9.83l-68.79 51.35 0 -102.7 68.79 51.35z"/>
  <path class="fil3" d="M6195.35 14115.97l102.69 -51.35 0 102.7 -102.69 -51.35zm886.62 9.83l-785.28 0 0 -19.66 785.28 0 0 19.66zm101.34 -9.83l-102.69 51.35 0 -102.7 102.69 51.35z"/>
  <path class="fil3" d="M7183.63 14115.97l102.69 -51.35 0 102.7 -102.69 -51.35zm1081.41 9.83l-980.07 0 0 -19.66 980.07 0 0 19.66zm101.34 -9.83l-102.69 51.35 0 -102.7 102.69 51.35z"/>
  <path class="fil3" d="M8366.7 14115.97l102.69 -51.35 0 102.7 -102.69 -51.35zm1099.81 9.83l-998.47 0 0 -19.66 998.47 0 0 19.66zm101.34 -9.83l-102.69 51.35 0 -102.7 102.69 51.35z"/>
  <path class="fil3" d="M9568.17 14115.97l102.69 -51.35 0 102.7 -102.69 -51.35zm2402.18 9.83l-2300.84 0 0 -19.66 2300.84 0 0 19.66zm101.35 -9.83l-102.7 51.35 0 -102.7 102.7 51.35z"/>
  <line class="fil1 str3" x1="5046.38" y1="21891.97" x2="4768.44" y2= "21891.97" />
  <line class="fil1 str3" x1="5451.27" y1="21891.97" x2="5173.32" y2= "21891.97" />
  <line class="fil1 str3" x1="5861.93" y1="21891.97" x2="5584" y2= "21891.97" />
  <g transform="matrix(1.01411 0 0 1 -9335.68 4180.79)">
   <text x="10048.28" y="17900.08"  class="fil4 str5 fnt0">+</text>
  </g>
  <g transform="matrix(1.01411 0 0 1 -8567.05 4180.79)">
   <text x="10048.28" y="17900.08"  class="fil4 str5 fnt0">+</text>
  </g>
  <g transform="matrix(1.01411 0 0 1 -7804.95 4180.79)">
   <text x="10048.28" y="17900.08"  class="fil4 str5 fnt0">+</text>
  </g>
  <g transform="matrix(1.01411 0 0 1 -7101.47 4180.79)">
   <text x="10048.28" y="17900.08"  class="fil4 str5 fnt0">+</text>
  </g>
  <g transform="matrix(1.01411 0 0 1 -6374.76 4180.79)">
   <text x="10048.28" y="17900.08"  class="fil4 str5 fnt0">+</text>
  </g>
  <g transform="matrix(1.01411 0 0 1 -1490.12 4246.08)">
   <text x="10048.28" y="17900.08"  class="fil4 str5 fnt1">+</text>
  </g>
  <g transform="matrix(1.01411 0 0 1 -880.149 4240.37)">
   <text x="10048.28" y="17900.08"  class="fil4 str5 fnt1">+</text>
  </g>
  <g transform="matrix(1.01411 0 0 1 -306.24 4240.37)">
   <text x="10048.28" y="17900.08"  class="fil4 str5 fnt1">+</text>
  </g>
  <g transform="matrix(1.01411 0 0 1 328.081 4240.37)">
   <text x="10048.28" y="17900.08"  class="fil4 str5 fnt1">+</text>
  </g>
  <g transform="matrix(1.01411 0 0 1 -5472.29 6768.83)">
   <text x="10048.28" y="17900.08"  class="fil4 str5 fnt2">+</text>
  </g>
  <g transform="matrix(1.01411 0 0 1 -5040.06 6768.83)">
   <text x="10048.28" y="17900.08"  class="fil4 str5 fnt2">+</text>
  </g>
  <g transform="matrix(1.01411 0 0 1 -4607.83 6768.83)">
   <text x="10048.28" y="17900.08"  class="fil4 str5 fnt2">+</text>
  </g>
  <circle class="fil5 str8" cx="19532.78" cy="23531.27" r="54.82"/>
  <circle class="fil5 str8" cx="19532.78" cy="23168.8" r="54.82"/>
  <circle class="fil5 str8" cx="19351.55" cy="23168.8" r="54.82"/>
  <circle class="fil5 str8" cx="19351.55" cy="23531.27" r="54.82"/>
  <circle class="fil5 str8" cx="19442.17" cy="23350.04" r="54.82"/>
  <circle class="fil5 str8" cx="19109.9" cy="23531.27" r="54.82"/>
  <circle class="fil5 str8" cx="19109.9" cy="23168.8" r="54.82"/>
  <circle class="fil5 str8" cx="18928.67" cy="23168.8" r="54.82"/>
  <circle class="fil5 str8" cx="18928.67" cy="23531.27" r="54.82"/>
  <circle class="fil5 str8" cx="19019.29" cy="23350.04" r="54.82"/>
  <circle class="fil5 str8" cx="18868.26" cy="23531.27" r="54.82"/>
  <circle class="fil5 str8" cx="18868.26" cy="23168.8" r="54.82"/>
  <circle class="fil5 str8" cx="18687.02" cy="23168.8" r="54.82"/>
  <circle class="fil5 str8" cx="18687.02" cy="23531.27" r="54.82"/>
  <circle class="fil5 str8" cx="18777.64" cy="23350.04" r="54.82"/>
  <circle class="fil5 str8" cx="18445.38" cy="23531.27" r="54.82"/>
  <circle class="fil5 str8" cx="18445.38" cy="23168.8" r="54.82"/>
  <circle class="fil5 str8" cx="18264.14" cy="23168.8" r="54.82"/>
  <circle class="fil5 str8" cx="18264.14" cy="23531.27" r="54.82"/>
  <circle class="fil5 str8" cx="18354.76" cy="23350.04" r="54.82"/>
  <circle class="fil5 str8" cx="18264.14" cy="23531.27" r="54.82"/>
  <circle class="fil5 str8" cx="18264.14" cy="23168.8" r="54.82"/>
  <circle class="fil5 str8" cx="18082.91" cy="23168.8" r="54.82"/>
  <circle class="fil5 str8" cx="18082.91" cy="23531.27" r="54.82"/>
  <circle class="fil5 str8" cx="18173.52" cy="23350.04" r="54.82"/>
  <circle class="fil5 str8" cx="18082.91" cy="23531.27" r="54.82"/>
  <circle class="fil5 str8" cx="18082.91" cy="23168.8" r="54.82"/>
  <circle class="fil5 str8" cx="17901.67" cy="23168.8" r="54.82"/>
  <circle class="fil5 str8" cx="17901.67" cy="23531.27" r="54.82"/>
  <circle class="fil5 str8" cx="17992.29" cy="23350.04" r="54.82"/>
  <circle class="fil5 str8" cx="17901.67" cy="23531.27" r="54.82"/>
  <circle class="fil5 str8" cx="17901.67" cy="23168.8" r="54.82"/>
  <circle class="fil5 str8" cx="17720.44" cy="23168.8" r="54.82"/>
  <circle class="fil5 str8" cx="17720.44" cy="23531.27" r="54.82"/>
  <circle class="fil5 str8" cx="17811.06" cy="23350.04" r="54.82"/>
  <circle class="fil5 str8" cx="17720.44" cy="23531.27" r="54.82"/>
  <circle class="fil5 str8" cx="17720.44" cy="23168.8" r="54.82"/>
  <circle class="fil5 str8" cx="17539.2" cy="23168.8" r="54.82"/>
  <circle class="fil5 str8" cx="17539.2" cy="23531.27" r="54.82"/>
  <circle class="fil5 str8" cx="17629.82" cy="23350.04" r="54.82"/>
  <circle class="fil5 str8" cx="17539.2" cy="23531.27" r="54.82"/>
  <circle class="fil5 str8" cx="17539.2" cy="23168.8" r="54.82"/>
  <circle class="fil5 str8" cx="17357.97" cy="23168.8" r="54.82"/>
  <circle class="fil5 str8" cx="17357.97" cy="23531.27" r="54.82"/>
  <circle class="fil5 str8" cx="17448.59" cy="23350.04" r="54.82"/>
  <circle class="fil5 str8" cx="17357.97" cy="23531.27" r="54.82"/>
  <circle class="fil5 str8" cx="17357.97" cy="23168.8" r="54.82"/>
  <circle class="fil5 str8" cx="17176.73" cy="23168.8" r="54.82"/>
  <circle class="fil5 str8" cx="17176.73" cy="23531.27" r="54.82"/>
  <circle class="fil5 str8" cx="17267.35" cy="23350.04" r="54.82"/>
  <circle class="fil5 str8" cx="17116.32" cy="23531.27" r="54.82"/>
  <circle class="fil5 str8" cx="17116.32" cy="23168.8" r="54.82"/>
  <circle class="fil5 str8" cx="16935.09" cy="23168.8" r="54.82"/>
  <circle class="fil5 str8" cx="16935.09" cy="23531.27" r="54.82"/>
  <circle class="fil5 str8" cx="17025.71" cy="23350.04" r="54.82"/>
  <circle class="fil5 str8" cx="16753.85" cy="23531.27" r="54.82"/>
  <circle class="fil5 str8" cx="16753.85" cy="23168.8" r="54.82"/>
  <circle class="fil5 str8" cx="16572.62" cy="23168.8" r="54.82"/>
  <circle class="fil5 str8" cx="16572.62" cy="23531.27" r="54.82"/>
  <circle class="fil5 str8" cx="16663.24" cy="23350.04" r="54.82"/>
  <circle class="fil5 str8" cx="16512.21" cy="23531.27" r="54.82"/>
  <circle class="fil5 str8" cx="16512.21" cy="23168.8" r="54.82"/>
  <circle class="fil5 str8" cx="16330.97" cy="23168.8" r="54.82"/>
  <circle class="fil5 str8" cx="16330.97" cy="23531.27" r="54.82"/>
  <circle class="fil5 str8" cx="16421.59" cy="23350.04" r="54.82"/>
  <circle class="fil5 str8" cx="16270.56" cy="23531.27" r="54.82"/>
  <circle class="fil5 str8" cx="16270.56" cy="23168.8" r="54.82"/>
  <circle class="fil5 str8" cx="16089.33" cy="23168.8" r="54.82"/>
  <circle class="fil5 str8" cx="16089.33" cy="23531.27" r="54.82"/>
  <circle class="fil5 str8" cx="16179.94" cy="23350.04" r="54.82"/>
  <circle class="fil5 str8" cx="16089.33" cy="23531.27" r="54.82"/>
  <circle class="fil5 str8" cx="16089.33" cy="23168.8" r="54.82"/>
  <circle class="fil5 str8" cx="15908.09" cy="23168.8" r="54.82"/>
  <circle class="fil5 str8" cx="15908.09" cy="23531.27" r="54.82"/>
  <circle class="fil5 str8" cx="15998.71" cy="23350.04" r="54.82"/>
  <circle class="fil5 str8" cx="15908.09" cy="23531.27" r="54.82"/>
  <circle class="fil5 str8" cx="15908.09" cy="23168.8" r="54.82"/>
  <circle class="fil5 str8" cx="15726.86" cy="23168.8" r="54.82"/>
  <circle class="fil5 str8" cx="15726.86" cy="23531.27" r="54.82"/>
  <circle class="fil5 str8" cx="15817.48" cy="23350.04" r="54.82"/>
  <circle class="fil5 str8" cx="15726.86" cy="23531.27" r="54.82"/>
  <circle class="fil5 str8" cx="15726.86" cy="23168.8" r="54.82"/>
  <circle class="fil5 str8" cx="15545.62" cy="23168.8" r="54.82"/>
  <circle class="fil5 str8" cx="15545.62" cy="23531.27" r="54.82"/>
  <circle class="fil5 str8" cx="15636.24" cy="23350.04" r="54.82"/>
  <circle class="fil5 str8" cx="15545.62" cy="23531.27" r="54.82"/>
  <circle class="fil5 str8" cx="15545.62" cy="23168.8" r="54.82"/>
  <circle class="fil5 str8" cx="15364.39" cy="23168.8" r="54.82"/>
  <circle class="fil5 str8" cx="15364.39" cy="23531.27" r="54.82"/>
  <circle class="fil5 str8" cx="15455.01" cy="23350.04" r="54.82"/>
  <circle class="fil5 str8" cx="15364.39" cy="23531.27" r="54.82"/>
  <circle class="fil5 str8" cx="15364.39" cy="23168.8" r="54.82"/>
  <circle class="fil5 str8" cx="15183.15" cy="23168.8" r="54.82"/>
  <circle class="fil5 str8" cx="15183.15" cy="23531.27" r="54.82"/>
  <circle class="fil5 str8" cx="15273.77" cy="23350.04" r="54.82"/>
  <circle class="fil5 str8" cx="15183.15" cy="23531.27" r="54.82"/>
  <circle class="fil5 str8" cx="15183.15" cy="23168.8" r="54.82"/>
  <circle class="fil5 str8" cx="15001.92" cy="23168.8" r="54.82"/>
  <circle class="fil5 str8" cx="15001.92" cy="23531.27" r="54.82"/>
  <circle class="fil5 str8" cx="15092.54" cy="23350.04" r="54.82"/>
  <circle class="fil5 str8" cx="15001.92" cy="23531.27" r="54.82"/>
  <circle class="fil5 str8" cx="15001.92" cy="23168.8" r="54.82"/>
  <circle class="fil5 str8" cx="14820.69" cy="23168.8" r="54.82"/>
  <circle class="fil5 str8" cx="14820.69" cy="23531.27" r="54.82"/>
  <circle class="fil5 str8" cx="14911.3" cy="23350.04" r="54.82"/>
  <circle class="fil5 str8" cx="14820.69" cy="23531.27" r="54.82"/>
  <circle class="fil5 str8" cx="14820.69" cy="23168.8" r="54.82"/>
  <circle class="fil5 str8" cx="14639.45" cy="23168.8" r="54.82"/>
  <circle class="fil5 str8" cx="14639.45" cy="23531.27" r="54.82"/>
  <circle class="fil5 str8" cx="14730.07" cy="23350.04" r="54.82"/>
  <circle class="fil5 str8" cx="14428.01" cy="23531.27" r="54.82"/>
  <circle class="fil5 str8" cx="14428.01" cy="23168.8" r="54.82"/>
  <circle class="fil5 str8" cx="14246.78" cy="23168.8" r="54.82"/>
  <circle class="fil5 str8" cx="14246.78" cy="23531.27" r="54.82"/>
  <circle class="fil5 str8" cx="14337.39" cy="23350.04" r="54.82"/>
  <circle class="fil5 str8" cx="14186.36" cy="23531.27" r="54.82"/>
  <circle class="fil5 str8" cx="14186.36" cy="23168.8" r="54.82"/>
  <circle class="fil5 str8" cx="14005.13" cy="23168.8" r="54.82"/>
  <circle class="fil5 str8" cx="14005.13" cy="23531.27" r="54.82"/>
  <circle class="fil5 str8" cx="14095.75" cy="23350.04" r="54.82"/>
  <circle class="fil5 str8" cx="14005.13" cy="23531.27" r="54.82"/>
  <circle class="fil5 str8" cx="14005.13" cy="23168.8" r="54.82"/>
  <circle class="fil5 str8" cx="13823.9" cy="23168.8" r="54.82"/>
  <circle class="fil5 str8" cx="13823.9" cy="23531.27" r="54.82"/>
  <circle class="fil5 str8" cx="13914.51" cy="23350.04" r="54.82"/>
  <circle class="fil5 str8" cx="13763.48" cy="23531.27" r="54.82"/>
  <circle class="fil5 str8" cx="13763.48" cy="23168.8" r="54.82"/>
  <circle class="fil5 str8" cx="13582.25" cy="23168.8" r="54.82"/>
  <circle class="fil5 str8" cx="13582.25" cy="23531.27" r="54.82"/>
  <circle class="fil5 str8" cx="13672.87" cy="23350.04" r="54.82"/>
  <circle class="fil5 str8" cx="13582.25" cy="23531.27" r="54.82"/>
  <circle class="fil5 str8" cx="13582.25" cy="23168.8" r="54.82"/>
  <circle class="fil5 str8" cx="13401.02" cy="23168.8" r="54.82"/>
  <circle class="fil5 str8" cx="13401.02" cy="23531.27" r="54.82"/>
  <circle class="fil5 str8" cx="13491.63" cy="23350.04" r="54.82"/>
  <circle class="fil5 str8" cx="13401.02" cy="23531.27" r="54.82"/>
  <circle class="fil5 str8" cx="13401.02" cy="23168.8" r="54.82"/>
  <circle class="fil5 str8" cx="13219.78" cy="23168.8" r="54.82"/>
  <circle class="fil5 str8" cx="13219.78" cy="23531.27" r="54.82"/>
  <circle class="fil5 str8" cx="13310.4" cy="23350.04" r="54.82"/>
  <circle class="fil5 str8" cx="13159.37" cy="23531.27" r="54.82"/>
  <circle class="fil5 str8" cx="13159.37" cy="23168.8" r="54.82"/>
  <circle class="fil5 str8" cx="12978.13" cy="23168.8" r="54.82"/>
  <circle class="fil5 str8" cx="12978.13" cy="23531.27" r="54.82"/>
  <circle class="fil5 str8" cx="13068.75" cy="23350.04" r="54.82"/>
  <circle class="fil5 str8" cx="12978.13" cy="23531.27" r="54.82"/>
  <circle class="fil5 str8" cx="12978.13" cy="23168.8" r="54.82"/>
  <circle class="fil5 str8" cx="12796.9" cy="23168.8" r="54.82"/>
  <circle class="fil5 str8" cx="12796.9" cy="23531.27" r="54.82"/>
  <circle class="fil5 str8" cx="12887.52" cy="23350.04" r="54.82"/>
  <circle class="fil5 str8" cx="12857.31" cy="23531.27" r="54.82"/>
  <circle class="fil5 str8" cx="12857.31" cy="23168.8" r="54.82"/>
  <circle class="fil5 str8" cx="12676.08" cy="23168.8" r="54.82"/>
  <circle class="fil5 str8" cx="12676.08" cy="23531.27" r="54.82"/>
  <circle class="fil5 str8" cx="12766.69" cy="23350.04" r="54.82"/>
  <circle class="fil5 str8" cx="12676.08" cy="23531.27" r="54.82"/>
  <circle class="fil5 str8" cx="12676.08" cy="23168.8" r="54.82"/>
  <circle class="fil5 str8" cx="12494.84" cy="23168.8" r="54.82"/>
  <circle class="fil5 str8" cx="12494.84" cy="23531.27" r="54.82"/>
  <circle class="fil5 str8" cx="12585.46" cy="23350.04" r="54.82"/>
  <circle class="fil5 str9" cx="12434.43" cy="23531.27" r="54.82"/>
  <circle class="fil5 str8" cx="12434.43" cy="23168.8" r="54.82"/>
  <circle class="fil5 str8" cx="12253.2" cy="23168.8" r="54.82"/>
  <circle class="fil5 str8" cx="12253.2" cy="23531.27" r="54.82"/>
  <circle class="fil5 str8" cx="12343.81" cy="23350.04" r="54.82"/>
  <circle class="fil5 str8" cx="12253.2" cy="23531.27" r="54.82"/>
  <circle class="fil5 str8" cx="12253.2" cy="23168.8" r="54.82"/>
  <circle class="fil5 str8" cx="12071.96" cy="23168.8" r="54.82"/>
  <circle class="fil5 str8" cx="12071.96" cy="23531.27" r="54.82"/>
  <circle class="fil5 str8" cx="12162.58" cy="23350.04" r="54.82"/>
  <circle class="fil5 str8" cx="12011.55" cy="23531.27" r="54.82"/>
  <circle class="fil5 str8" cx="12011.55" cy="23168.8" r="54.82"/>
  <circle class="fil5 str8" cx="11830.32" cy="23168.8" r="54.82"/>
  <circle class="fil5 str8" cx="11830.32" cy="23531.27" r="54.82"/>
  <circle class="fil5 str8" cx="11920.93" cy="23350.04" r="54.82"/>
  <circle class="fil5 str8" cx="11830.32" cy="23531.27" r="54.82"/>
  <circle class="fil5 str8" cx="11830.32" cy="23168.8" r="54.82"/>
  <circle class="fil5 str8" cx="11649.08" cy="23168.8" r="54.82"/>
  <circle class="fil5 str8" cx="11649.08" cy="23531.27" r="54.82"/>
  <circle class="fil5 str8" cx="11739.7" cy="23350.04" r="54.82"/>
  <circle class="fil5 str8" cx="11649.08" cy="23531.27" r="54.82"/>
  <circle class="fil5 str8" cx="11649.08" cy="23168.8" r="54.82"/>
  <circle class="fil5 str8" cx="11467.85" cy="23168.8" r="54.82"/>
  <circle class="fil5 str8" cx="11467.85" cy="23531.27" r="54.82"/>
  <circle class="fil5 str8" cx="11558.46" cy="23350.04" r="54.82"/>
  <circle class="fil5 str8" cx="11407.44" cy="23531.27" r="54.82"/>
  <circle class="fil5 str8" cx="11407.44" cy="23168.8" r="54.82"/>
  <circle class="fil5 str8" cx="11226.2" cy="23168.8" r="54.82"/>
  <circle class="fil5 str8" cx="11226.2" cy="23531.27" r="54.82"/>
  <circle class="fil5 str8" cx="11316.82" cy="23350.04" r="54.82"/>
  <circle class="fil5 str8" cx="11226.2" cy="23531.27" r="54.82"/>
  <circle class="fil5 str8" cx="11226.2" cy="23168.8" r="54.82"/>
  <circle class="fil5 str8" cx="11044.97" cy="23168.8" r="54.82"/>
  <circle class="fil5 str8" cx="11044.97" cy="23531.27" r="54.82"/>
  <circle class="fil5 str8" cx="11135.58" cy="23350.04" r="54.82"/>
  <circle class="fil5 str8" cx="11044.97" cy="23531.27" r="54.82"/>
  <circle class="fil5 str8" cx="11044.97" cy="23168.8" r="54.82"/>
  <circle class="fil5 str8" cx="10863.73" cy="23168.8" r="54.82"/>
  <circle class="fil5 str8" cx="10863.73" cy="23531.27" r="54.82"/>
  <circle class="fil5 str8" cx="10954.35" cy="23350.04" r="54.82"/>
  <circle class="fil5 str8" cx="10863.73" cy="23531.27" r="54.82"/>
  <circle class="fil5 str8" cx="10863.73" cy="23168.8" r="54.82"/>
  <circle class="fil5 str8" cx="10682.5" cy="23168.8" r="54.82"/>
  <circle class="fil5 str8" cx="10682.5" cy="23531.27" r="54.82"/>
  <circle class="fil5 str8" cx="10773.11" cy="23350.04" r="54.82"/>
  <circle class="fil5 str8" cx="10622.09" cy="23531.27" r="54.82"/>
  <circle class="fil5 str8" cx="10622.09" cy="23168.8" r="54.82"/>
  <circle class="fil5 str8" cx="10440.85" cy="23168.8" r="54.82"/>
  <circle class="fil5 str8" cx="10440.85" cy="23531.27" r="54.82"/>
  <circle class="fil5 str8" cx="10531.47" cy="23350.04" r="54.82"/>
  <circle class="fil5 str8" cx="10440.85" cy="23531.27" r="54.82"/>
  <circle class="fil5 str8" cx="10440.85" cy="23168.8" r="54.82"/>
  <circle class="fil5 str8" cx="10259.62" cy="23168.8" r="54.82"/>
  <circle class="fil5 str8" cx="10259.62" cy="23531.27" r="54.82"/>
  <circle class="fil5 str8" cx="10350.23" cy="23350.04" r="54.82"/>
  <circle class="fil5 str8" cx="10138.79" cy="23531.27" r="54.82"/>
  <circle class="fil5 str8" cx="10138.79" cy="23168.8" r="54.82"/>
  <circle class="fil5 str8" cx="9957.56" cy="23168.8" r="54.82"/>
  <circle class="fil5 str8" cx="9957.56" cy="23531.27" r="54.82"/>
  <circle class="fil5 str8" cx="10048.18" cy="23350.04" r="54.82"/>
  <circle class="fil5 str8" cx="9957.56" cy="23531.27" r="54.82"/>
  <circle class="fil5 str8" cx="9957.56" cy="23168.8" r="54.82"/>
  <circle class="fil5 str8" cx="9776.32" cy="23168.8" r="54.82"/>
  <circle class="fil5 str8" cx="9776.32" cy="23531.27" r="54.82"/>
  <circle class="fil5 str8" cx="9866.94" cy="23350.04" r="54.82"/>
  <circle class="fil5 str8" cx="9715.91" cy="23531.27" r="54.82"/>
  <circle class="fil5 str8" cx="9715.91" cy="23168.8" r="54.82"/>
  <circle class="fil5 str8" cx="9534.68" cy="23168.8" r="54.82"/>
  <circle class="fil5 str8" cx="9534.68" cy="23531.27" r="54.82"/>
  <circle class="fil5 str8" cx="9625.3" cy="23350.04" r="54.82"/>
  <circle class="fil5 str8" cx="9474.27" cy="23531.27" r="54.82"/>
  <circle class="fil5 str8" cx="9474.27" cy="23168.8" r="54.82"/>
  <circle class="fil5 str8" cx="9293.03" cy="23168.8" r="54.82"/>
  <circle class="fil5 str8" cx="9293.03" cy="23531.27" r="54.82"/>
  <circle class="fil5 str8" cx="9383.65" cy="23350.04" r="54.82"/>
  <circle class="fil5 str8" cx="9293.03" cy="23531.27" r="54.82"/>
  <circle class="fil5 str8" cx="9293.03" cy="23168.8" r="54.82"/>
  <circle class="fil5 str8" cx="9111.8" cy="23168.8" r="54.82"/>
  <circle class="fil5 str8" cx="9111.8" cy="23531.27" r="54.82"/>
  <circle class="fil5 str8" cx="9202.41" cy="23350.04" r="54.82"/>
  <circle class="fil5 str8" cx="9051.39" cy="23531.27" r="54.82"/>
  <circle class="fil5 str8" cx="9051.39" cy="23168.8" r="54.82"/>
  <circle class="fil5 str8" cx="8870.15" cy="23168.8" r="54.82"/>
  <circle class="fil5 str8" cx="8870.15" cy="23531.27" r="54.82"/>
  <circle class="fil5 str8" cx="8960.77" cy="23350.04" r="54.82"/>
  <circle class="fil5 str8" cx="8870.15" cy="23531.27" r="54.82"/>
  <circle class="fil5 str8" cx="8870.15" cy="23168.8" r="54.82"/>
  <circle class="fil5 str8" cx="8688.92" cy="23168.8" r="54.82"/>
  <circle class="fil5 str8" cx="8688.92" cy="23531.27" r="54.82"/>
  <circle class="fil5 str8" cx="8779.53" cy="23350.04" r="54.82"/>
  <circle class="fil5 str8" cx="8628.51" cy="23531.27" r="54.82"/>
  <circle class="fil5 str8" cx="8628.51" cy="23168.8" r="54.82"/>
  <circle class="fil5 str8" cx="8447.27" cy="23168.8" r="54.82"/>
  <circle class="fil5 str8" cx="8447.27" cy="23531.27" r="54.82"/>
  <circle class="fil5 str8" cx="8537.89" cy="23350.04" r="54.82"/>
  <circle class="fil5 str8" cx="8447.27" cy="23531.27" r="54.82"/>
  <circle class="fil5 str8" cx="8447.27" cy="23168.8" r="54.82"/>
  <circle class="fil5 str8" cx="8266.04" cy="23168.8" r="54.82"/>
  <circle class="fil5 str8" cx="8266.04" cy="23531.27" r="54.82"/>
  <circle class="fil5 str8" cx="8356.65" cy="23350.04" r="54.82"/>
  <circle class="fil5 str8" cx="8266.04" cy="23531.27" r="54.82"/>
  <circle class="fil5 str8" cx="8266.04" cy="23168.8" r="54.82"/>
  <circle class="fil5 str8" cx="8084.8" cy="23168.8" r="54.82"/>
  <circle class="fil5 str8" cx="8084.8" cy="23531.27" r="54.82"/>
  <circle class="fil5 str8" cx="8175.42" cy="23350.04" r="54.82"/>
  <circle class="fil5 str8" cx="8084.8" cy="23531.27" r="54.82"/>
  <circle class="fil5 str8" cx="8084.8" cy="23168.8" r="54.82"/>
  <circle class="fil5 str8" cx="7903.57" cy="23168.8" r="54.82"/>
  <circle class="fil5 str8" cx="7903.57" cy="23531.27" r="54.82"/>
  <circle class="fil5 str8" cx="7994.18" cy="23350.04" r="54.82"/>
  <circle class="fil5 str8" cx="7903.57" cy="23531.27" r="54.82"/>
  <circle class="fil5 str8" cx="7903.57" cy="23168.8" r="54.82"/>
  <circle class="fil5 str8" cx="7722.33" cy="23168.8" r="54.82"/>
  <circle class="fil5 str8" cx="7722.33" cy="23531.27" r="54.82"/>
  <circle class="fil5 str8" cx="7812.95" cy="23350.04" r="54.82"/>
  <circle class="fil5 str8" cx="7722.33" cy="23531.27" r="54.82"/>
  <circle class="fil5 str8" cx="7722.33" cy="23168.8" r="54.82"/>
  <circle class="fil5 str8" cx="7541.1" cy="23168.8" r="54.82"/>
  <circle class="fil5 str8" cx="7541.1" cy="23531.27" r="54.82"/>
  <circle class="fil5 str8" cx="7631.72" cy="23350.04" r="54.82"/>
  <circle class="fil5 str8" cx="7541.1" cy="23531.27" r="54.82"/>
  <circle class="fil5 str8" cx="7541.1" cy="23168.8" r="54.82"/>
  <circle class="fil5 str8" cx="7359.86" cy="23168.8" r="54.82"/>
  <circle class="fil5 str8" cx="7359.86" cy="23531.27" r="54.82"/>
  <circle class="fil5 str8" cx="7450.48" cy="23350.04" r="54.82"/>
  <circle class="fil5 str8" cx="7359.86" cy="23531.27" r="54.82"/>
  <circle class="fil5 str8" cx="7359.86" cy="23168.8" r="54.82"/>
  <circle class="fil5 str8" cx="7178.63" cy="23168.8" r="54.82"/>
  <circle class="fil5 str8" cx="7178.63" cy="23531.27" r="54.82"/>
  <circle class="fil5 str8" cx="7269.25" cy="23350.04" r="54.82"/>
  <circle class="fil5 str8" cx="7118.22" cy="23531.27" r="54.82"/>
  <circle class="fil5 str8" cx="7118.22" cy="23168.8" r="54.82"/>
  <circle class="fil5 str8" cx="6936.98" cy="23168.8" r="54.82"/>
  <circle class="fil5 str8" cx="6936.98" cy="23531.27" r="54.82"/>
  <circle class="fil5 str8" cx="7027.6" cy="23350.04" r="54.82"/>
  <circle class="fil5 str8" cx="6936.98" cy="23531.27" r="54.82"/>
  <circle class="fil5 str8" cx="6936.98" cy="23168.8" r="54.82"/>
  <circle class="fil5 str8" cx="6755.75" cy="23168.8" r="54.82"/>
  <circle class="fil5 str8" cx="6755.75" cy="23531.27" r="54.82"/>
  <circle class="fil5 str8" cx="6846.37" cy="23350.04" r="54.82"/>
  <circle class="fil5 str8" cx="6695.34" cy="23531.27" r="54.82"/>
  <circle class="fil5 str8" cx="6695.34" cy="23168.8" r="54.82"/>
  <circle class="fil5 str8" cx="6514.1" cy="23168.8" r="54.82"/>
  <circle class="fil5 str8" cx="6514.1" cy="23531.27" r="54.82"/>
  <circle class="fil5 str8" cx="6604.72" cy="23350.04" r="54.82"/>
  <circle class="fil5 str8" cx="6514.1" cy="23531.27" r="54.82"/>
  <circle class="fil5 str8" cx="6514.1" cy="23168.8" r="54.82"/>
  <circle class="fil5 str8" cx="6332.87" cy="23168.8" r="54.82"/>
  <circle class="fil5 str8" cx="6332.87" cy="23531.27" r="54.82"/>
  <circle class="fil5 str8" cx="6423.49" cy="23350.04" r="54.82"/>
  <circle class="fil5 str8" cx="6332.87" cy="23531.27" r="54.82"/>
  <circle class="fil5 str8" cx="6332.87" cy="23168.8" r="54.82"/>
  <circle class="fil5 str8" cx="6151.63" cy="23168.8" r="54.82"/>
  <circle class="fil5 str8" cx="6151.63" cy="23531.27" r="54.82"/>
  <circle class="fil5 str8" cx="6242.25" cy="23350.04" r="54.82"/>
  <circle class="fil5 str8" cx="6151.63" cy="23531.27" r="54.82"/>
  <circle class="fil5 str8" cx="6151.63" cy="23168.8" r="54.82"/>
  <circle class="fil5 str8" cx="5970.4" cy="23168.8" r="54.82"/>
  <circle class="fil5 str8" cx="5970.4" cy="23531.27" r="54.82"/>
  <circle class="fil5 str8" cx="6061.02" cy="23350.04" r="54.82"/>
  <circle class="fil5 str8" cx="5970.4" cy="23531.27" r="54.82"/>
  <circle class="fil5 str8" cx="5970.4" cy="23168.8" r="54.82"/>
  <circle class="fil5 str8" cx="5789.16" cy="23168.8" r="54.82"/>
  <circle class="fil5 str8" cx="5789.16" cy="23531.27" r="54.82"/>
  <circle class="fil5 str8" cx="5879.78" cy="23350.04" r="54.82"/>
  <circle class="fil5 str8" cx="5789.16" cy="23531.27" r="54.82"/>
  <circle class="fil5 str8" cx="5789.16" cy="23168.8" r="54.82"/>
  <circle class="fil5 str8" cx="5607.93" cy="23168.8" r="54.82"/>
  <circle class="fil5 str8" cx="5607.93" cy="23531.27" r="54.82"/>
  <circle class="fil5 str8" cx="5698.55" cy="23350.04" r="54.82"/>
  <circle class="fil5 str8" cx="5607.93" cy="23531.27" r="54.82"/>
  <circle class="fil5 str8" cx="5607.93" cy="23168.8" r="54.82"/>
  <circle class="fil5 str8" cx="5426.7" cy="23168.8" r="54.82"/>
  <circle class="fil5 str8" cx="5426.7" cy="23531.27" r="54.82"/>
  <circle class="fil5 str8" cx="5517.31" cy="23350.04" r="54.82"/>
  <circle class="fil5 str8" cx="5366.28" cy="23531.27" r="54.82"/>
  <circle class="fil5 str8" cx="5366.28" cy="23168.8" r="54.82"/>
  <circle class="fil5 str8" cx="5185.05" cy="23168.8" r="54.82"/>
  <circle class="fil5 str8" cx="5185.05" cy="23531.27" r="54.82"/>
  <circle class="fil5 str8" cx="5275.67" cy="23350.04" r="54.82"/>
  <circle class="fil5 str8" cx="5185.05" cy="23531.27" r="54.82"/>
  <circle class="fil5 str8" cx="5185.05" cy="23168.8" r="54.82"/>
  <circle class="fil5 str8" cx="5003.81" cy="23168.8" r="54.82"/>
  <circle class="fil5 str8" cx="5003.81" cy="23531.27" r="54.82"/>
  <circle class="fil5 str8" cx="5094.43" cy="23350.04" r="54.82"/>
  <circle class="fil5 str8" cx="5003.81" cy="23531.27" r="54.82"/>
  <circle class="fil5 str8" cx="5003.81" cy="23168.8" r="54.82"/>
  <circle class="fil5 str8" cx="4822.58" cy="23168.8" r="54.82"/>
  <circle class="fil5 str8" cx="4822.58" cy="23531.27" r="54.82"/>
  <circle class="fil5 str8" cx="4913.2" cy="23350.04" r="54.82"/>
  <circle class="fil5 str8" cx="4792.37" cy="23531.27" r="54.82"/>
  <circle class="fil5 str8" cx="4792.37" cy="23168.8" r="54.82"/>
  <circle class="fil5 str8" cx="4611.14" cy="23168.8" r="54.82"/>
  <circle class="fil5 str8" cx="4611.14" cy="23531.27" r="54.82"/>
  <circle class="fil5 str8" cx="4701.76" cy="23350.04" r="54.82"/>
  <circle class="fil5 str8" cx="4611.14" cy="23531.27" r="54.82"/>
  <circle class="fil5 str8" cx="4611.14" cy="23168.8" r="54.82"/>
  <circle class="fil5 str8" cx="4429.91" cy="23168.8" r="54.82"/>
  <circle class="fil5 str8" cx="4429.91" cy="23531.27" r="54.82"/>
  <circle class="fil5 str8" cx="4520.52" cy="23350.04" r="54.82"/>
  <circle class="fil5 str8" cx="4369.49" cy="23531.27" r="54.82"/>
  <circle class="fil5 str8" cx="4369.49" cy="23168.8" r="54.82"/>
  <circle class="fil5 str8" cx="4188.26" cy="23168.8" r="54.82"/>
  <circle class="fil5 str8" cx="4188.26" cy="23531.27" r="54.82"/>
  <circle class="fil5 str8" cx="4278.88" cy="23350.04" r="54.82"/>
  <circle class="fil5 str8" cx="4127.85" cy="23531.27" r="54.82"/>
  <circle class="fil5 str8" cx="4127.85" cy="23168.8" r="54.82"/>
  <circle class="fil5 str8" cx="3946.61" cy="23168.8" r="54.82"/>
  <circle class="fil5 str8" cx="3946.61" cy="23531.27" r="54.82"/>
  <circle class="fil5 str8" cx="4037.23" cy="23350.04" r="54.82"/>
  <circle class="fil5 str8" cx="3946.61" cy="23531.27" r="54.82"/>
  <circle class="fil5 str8" cx="3946.61" cy="23168.8" r="54.82"/>
  <circle class="fil5 str8" cx="3765.38" cy="23168.8" r="54.82"/>
  <circle class="fil5 str8" cx="3765.38" cy="23531.27" r="54.82"/>
  <circle class="fil5 str8" cx="3856" cy="23350.04" r="54.82"/>
  <circle class="fil5 str8" cx="3765.38" cy="23531.27" r="54.82"/>
  <circle class="fil5 str8" cx="3765.38" cy="23168.8" r="54.82"/>
  <circle class="fil5 str8" cx="3584.14" cy="23168.8" r="54.82"/>
  <circle class="fil5 str8" cx="3584.14" cy="23531.27" r="54.82"/>
  <circle class="fil5 str8" cx="3674.76" cy="23350.04" r="54.82"/>
  <circle class="fil5 str8" cx="3584.14" cy="23531.27" r="54.82"/>
  <circle class="fil5 str8" cx="3584.14" cy="23168.8" r="54.82"/>
  <circle class="fil5 str8" cx="3402.91" cy="23168.8" r="54.82"/>
  <circle class="fil5 str8" cx="3402.91" cy="23531.27" r="54.82"/>
  <circle class="fil5 str8" cx="3493.53" cy="23350.04" r="54.82"/>
  <circle class="fil5 str8" cx="3402.91" cy="23531.27" r="54.82"/>
  <circle class="fil5 str8" cx="3402.91" cy="23168.8" r="54.82"/>
  <circle class="fil5 str8" cx="3221.68" cy="23168.8" r="54.82"/>
  <circle class="fil5 str8" cx="3221.68" cy="23531.27" r="54.82"/>
  <circle class="fil5 str8" cx="3312.29" cy="23350.04" r="54.82"/>
  <circle class="fil5 str8" cx="3221.68" cy="23531.27" r="54.82"/>
  <circle class="fil5 str8" cx="3221.68" cy="23168.8" r="54.82"/>
  <circle class="fil5 str8" cx="3040.44" cy="23168.8" r="54.82"/>
  <circle class="fil5 str8" cx="3040.44" cy="23531.27" r="54.82"/>
  <circle class="fil5 str8" cx="3131.06" cy="23350.04" r="54.82"/>
  <circle class="fil5 str8" cx="3040.44" cy="23531.27" r="54.82"/>
  <circle class="fil5 str8" cx="3040.44" cy="23168.8" r="54.82"/>
  <circle class="fil5 str8" cx="2859.21" cy="23168.8" r="54.82"/>
  <circle class="fil5 str8" cx="2859.21" cy="23531.27" r="54.82"/>
  <circle class="fil5 str8" cx="2949.82" cy="23350.04" r="54.82"/>
  <circle class="fil5 str8" cx="2859.21" cy="23531.27" r="54.82"/>
  <circle class="fil5 str8" cx="2859.21" cy="23168.8" r="54.82"/>
  <circle class="fil5 str8" cx="2677.97" cy="23168.8" r="54.82"/>
  <circle class="fil5 str8" cx="2677.97" cy="23531.27" r="54.82"/>
  <circle class="fil5 str8" cx="2768.59" cy="23350.04" r="54.82"/>
  <circle class="fil5 str8" cx="2677.97" cy="23531.27" r="54.82"/>
  <circle class="fil5 str8" cx="2677.97" cy="23168.8" r="54.82"/>
  <circle class="fil5 str8" cx="2496.74" cy="23168.8" r="54.82"/>
  <circle class="fil5 str8" cx="2496.74" cy="23531.27" r="54.82"/>
  <circle class="fil5 str8" cx="2587.35" cy="23350.04" r="54.82"/>
  <circle class="fil5 str8" cx="2436.33" cy="23531.27" r="54.82"/>
  <circle class="fil5 str8" cx="2436.33" cy="23168.8" r="54.82"/>
  <circle class="fil5 str8" cx="2255.09" cy="23168.8" r="54.82"/>
  <circle class="fil5 str8" cx="2255.09" cy="23531.27" r="54.82"/>
  <circle class="fil5 str8" cx="2345.71" cy="23350.04" r="54.82"/>
  <circle class="fil5 str8" cx="2255.09" cy="23531.27" r="54.82"/>
  <circle class="fil5 str8" cx="2255.09" cy="23168.8" r="54.82"/>
  <circle class="fil5 str8" cx="2073.86" cy="23168.8" r="54.82"/>
  <circle class="fil5 str8" cx="2073.86" cy="23531.27" r="54.82"/>
  <circle class="fil5 str8" cx="2164.47" cy="23350.04" r="54.82"/>
  <circle class="fil5 str8" cx="2013.44" cy="23531.27" r="54.82"/>
  <circle class="fil5 str8" cx="2013.44" cy="23168.8" r="54.82"/>
  <circle class="fil5 str8" cx="1832.21" cy="23168.8" r="54.82"/>
  <circle class="fil5 str8" cx="1832.21" cy="23531.27" r="54.82"/>
  <circle class="fil5 str8" cx="1922.83" cy="23350.04" r="54.82"/>
  <circle class="fil5 str8" cx="1832.21" cy="23531.27" r="54.82"/>
  <circle class="fil5 str8" cx="1832.21" cy="23168.8" r="54.82"/>
  <circle class="fil5 str8" cx="1650.98" cy="23168.8" r="54.82"/>
  <circle class="fil5 str8" cx="1650.98" cy="23531.27" r="54.82"/>
  <circle class="fil5 str8" cx="1741.59" cy="23350.04" r="54.82"/>
  <circle class="fil5 str8" cx="1590.56" cy="23531.27" r="54.82"/>
  <circle class="fil5 str8" cx="1590.56" cy="23168.8" r="54.82"/>
  <circle class="fil5 str8" cx="1409.33" cy="23168.8" r="54.82"/>
  <circle class="fil5 str8" cx="1409.33" cy="23531.27" r="54.82"/>
  <circle class="fil5 str8" cx="1499.95" cy="23350.04" r="54.82"/>
  <circle class="fil5 str8" cx="1409.33" cy="23531.27" r="54.82"/>
  <circle class="fil5 str8" cx="1409.33" cy="23168.8" r="54.82"/>
  <circle class="fil5 str8" cx="1228.1" cy="23168.8" r="54.82"/>
  <circle class="fil5 str8" cx="1228.1" cy="23531.27" r="54.82"/>
  <circle class="fil5 str8" cx="1318.71" cy="23350.04" r="54.82"/>
  <circle class="fil5 str8" cx="1228.1" cy="23531.27" r="54.82"/>
  <circle class="fil5 str8" cx="1228.1" cy="23168.8" r="54.82"/>
  <circle class="fil5 str8" cx="1046.86" cy="23168.8" r="54.82"/>
  <circle class="fil5 str8" cx="1046.86" cy="23531.27" r="54.82"/>
  <circle class="fil5 str8" cx="1137.48" cy="23350.04" r="54.82"/>
  <circle class="fil5 str8" cx="1046.86" cy="23531.27" r="54.82"/>
  <circle class="fil5 str8" cx="1046.86" cy="23168.8" r="54.82"/>
  <circle class="fil5 str8" cx="865.63" cy="23168.8" r="54.82"/>
  <circle class="fil5 str8" cx="865.63" cy="23531.27" r="54.82"/>
  <circle class="fil5 str8" cx="956.24" cy="23350.04" r="54.82"/>
  <text x="883.31" y="22848.73"  class="fil6 fnt3">Внешняя</text>
  <text x="871.25" y="22426.37"  class="fil6 fnt3">Мембрана клетки</text>
  <text x="894.21" y="24091.1"  class="fil6 fnt3">Внутренняя</text>
  <g transform="matrix(1.01411 0 0 1 -8469.08 7355.21)">
   <text x="10048.28" y="17900.08"  class="fil7 str11 fnt4">K</text>
  </g>
  <g transform="matrix(1.01411 0 0 1 -1212.33 8162.76)">
   <text x="10048.28" y="17900.08"  class="fil4 fnt5">Макроэргические фосфаты</text>
  </g>
  <g transform="matrix(1.01411 0 0 1 -1212.33 8162.76)">
   <text x="10048.28" y="18343.7"  class="fil4 fnt5">вызывают сокращение мышц</text>
  </g>
  <g transform="matrix(1.01411 0 0 1 -1212.33 8162.76)">
   <text x="10048.28" y="18787.31"  class="fil4 fnt5">(электромеханическое сопряжение)</text>
  </g>
  <g transform="matrix(1.01411 0 0 1 -8049.67 7012.75)">
   <text x="10048.28" y="17900.08"  class="fil7 str11 fnt6">+</text>
  </g>
  <path class="fil8 str8" d="M17431.79 23114.67c35.94,-65.63 111.52,-81.37 189.93,-97.31 61.26,-12.45 213.68,13.47 153.51,151.45 -12.87,29.48 -38.67,115.94 -112.43,137.44 -100.71,29.36 -320.67,76.75 -231.01,-191.57z"/>
  <path class="fil8 str8" d="M16645.05 23261.96c8.52,-37.36 211.77,-63.25 359.21,-25.5 76.78,19.67 23.89,88.2 -56.76,196.82 -32.1,43.28 -124.99,40.93 -178.18,7.67 -37.79,-23.62 -123.9,-110.68 -124.27,-179z"/>
  <path class="fil8 str8" d="M16115.07 23056.73c75,-37.54 186.09,94.94 263,187.16 39.03,46.82 45.73,114.77 20.24,174.98 -47.72,112.55 -50.32,164.62 -214.13,187 -46.01,6.29 -232.14,-108.14 -174.63,-354.79 38.15,-163.54 60.66,-179.07 105.52,-194.35z"/>
  <path class="fil8 str8" d="M15061.69 23140.38c72.53,-90.02 200.99,-168.1 346.76,-102.7 24.02,10.78 41.93,112.49 4.29,180.9 -25.22,45.91 -98.89,131.45 -138.98,131.45 -30.9,0 -154.56,17.91 -181.23,-54.79 -27.37,-74.63 -34.1,-153.02 -30.84,-154.86z"/>
  <path class="fil8 str8" d="M14286.26 23330.22c-17.43,-121.79 176.61,-188.57 318.01,-153.27 119.49,29.88 97.72,246.51 -37.27,276.6 -100.44,22.41 -259.17,-48.12 -280.73,-123.33z"/>
  <path class="fil8 str8" d="M13767.41 23040.76c22.95,-44.94 288.1,149.76 308.64,290.73 7.19,49.36 -140.4,288.04 -230.23,261.13 -30.48,-9.12 -185.68,-159.33 -160.27,-297.83 23.1,-125.96 45.18,-213.28 81.85,-254.03z"/>
  <path class="fil8 str8" d="M12717.88 23156.99c-2.95,-92.04 120.64,-174.89 335.86,-90.95 26.37,10.27 76.21,90.59 -4.41,187.88 -38.54,46.49 -101.31,100.07 -179.96,79.38 -125.63,-33.05 -152.32,-132.45 -151.48,-176.31z"/>
  <path class="fil8 str8" d="M11954.73 23279.65c3.05,-46.42 424.87,-125.29 365.8,20.76 -96.33,238.16 -209.61,213.58 -324.96,74.69 -49.56,-59.69 -46.1,-70.65 -40.84,-95.45z"/>
  <path class="fil8 str8" d="M11419.94 23032.76c66,51.44 148.83,98.8 229.14,190.84 82.61,94.66 58.63,255.51 -141.46,363.89 -20.38,11.03 -103.87,58.21 -154.98,-56.21 -75.93,-170.09 38.91,-502.87 67.3,-498.51z"/>
  <path class="fil8 str8" d="M10341.9 23113.38c7.37,-52.47 134.23,-133.97 304.93,-82.14 200.54,60.93 37.54,331.18 -79.69,327.56 -190.93,-5.89 -256.66,-236.94 -225.24,-245.42z"/>
  <path class="fil8 str8" d="M9950.22 23247.04c77.92,28.7 50.26,185.76 -151.4,234.21 -51.41,12.35 -112.88,-30.99 -151.18,-61.2 -165.13,-130.21 142.45,-231.98 302.58,-173.01z"/>
  <path class="fil8 str8" d="M9016.32 23070.72c105.48,-96.48 261.42,115.39 297.92,330.85 8.18,48.27 -79.78,188.15 -154.96,202.56 -31.77,6.07 -144.32,7.31 -174.59,-76.18 -36.28,-100.07 -36.34,-222.83 -32.1,-312.42 3.11,-65.91 50.56,-145.89 63.73,-144.81z"/>
  <path class="fil8 str8" d="M8136.16 23041.73c121.21,-48.81 372.32,-10.72 204.37,282.42 -7.25,12.63 -83.94,47.82 -157.49,44.31 -9.73,-0.45 -91.46,-35.24 -91.46,-112.84 0,-77.87 16.8,-180.33 44.59,-213.89z"/>
  <path class="fil8 str8" d="M7254.11 23259.51c104.82,-68.92 516.64,-117.59 432.4,90.53 -29.33,72.41 -30.9,71.14 -85.48,124.84 -50.42,49.6 -189.33,38.67 -241.17,1.61 -112.72,-80.56 -124.12,-187.43 -105.75,-216.97z"/>
  <path class="fil8 str8" d="M6786.34 23029.67c7.95,1.18 102.16,114.3 150.64,193.92 26.07,42.87 13.12,166.92 -9.37,261.01 -6.82,28.52 -63.37,109.23 -150.84,112.27 -37.67,1.33 -125.08,-32.44 -179.63,-126.05 -28.21,-48.45 -33.71,-174.59 2.95,-264.66 45.5,-111.7 208.28,-185.15 186.25,-176.49z"/>
  <path class="fil8 str8" d="M5713.62 23117.63c17.04,-87.36 329.07,-162.47 319.58,-31.05 -8.01,110.91 -40.66,197.94 -109.38,230.8 -51.9,24.84 -135.21,22.29 -176.37,7.86 -70.99,-24.89 -46.88,-151.48 -33.84,-207.61z"/>
  <path class="fil8 str8" d="M4883.41 23254.49c2.26,-56.27 229.75,-35.52 392.74,-24.11 22.32,1.55 29.21,74.1 -13.78,122.4 -36.67,41.26 -105.6,91.29 -144.36,98.96 -15.49,3.08 -122.09,-21.57 -193.32,-73.8 -85.33,-62.58 -43.91,-130.39 -41.29,-123.45z"/>
  <path class="fil8 str8" d="M4530.84 23177.16c14.7,-2.53 57.93,22.72 82.21,42.53 35.61,29.09 54.43,74.08 65.84,105.89 11.67,32.56 10.34,137.35 -20.44,201.76 -12.23,25.65 -86.44,82.12 -149.98,48.75 -28.92,-15.18 -57.62,-95.14 -63.35,-182.43 -4.52,-68.78 72.67,-218.73 85.72,-216.5z"/>
  <path class="fil8 str8" d="M3324.92 23126.69c8.4,-41.77 123.48,-76.54 189.97,-73.42 94.33,4.4 194.85,13.2 167.88,93.73 -11.45,34.19 -111.07,159.82 -182.23,170.48 -25.98,3.89 -80.39,-18.55 -117.47,-62.29 -38.7,-45.64 -59.69,-113.12 -58.15,-128.5z"/>
  <path class="fil8 str8" d="M2543.67 23282.56c8.4,-41.77 123.49,-76.55 189.97,-73.43 94.33,4.41 194.85,13.2 167.88,93.73 -11.44,34.19 -111.06,159.82 -182.23,170.48 -25.98,3.9 -80.38,-18.54 -117.47,-62.29 -38.69,-45.64 -59.69,-113.12 -58.15,-128.49z"/>
  <path class="fil8 str8" d="M2018.76 23018.77c21.05,-3.62 82.95,32.53 117.72,60.89 50.98,41.66 77.92,106.09 94.27,151.63 16.7,46.61 14.8,196.68 -29.27,288.89 -17.52,36.73 -123.78,117.6 -214.77,69.81 -41.41,-21.74 -82.49,-136.23 -90.71,-261.22 -6.47,-98.48 104.06,-313.2 122.75,-310z"/>
  <path class="fil8 str8" d="M1011.58 23118.96c17.04,-87.36 329.07,-162.47 319.57,-31.05 -8,110.91 -40.65,197.94 -109.37,230.8 -51.9,24.84 -135.21,22.29 -176.38,7.86 -70.98,-24.89 -46.87,-151.48 -33.83,-207.61z"/>
  <path class="fil8 str8" d="M18982.7 23253.95c8.52,-37.36 211.77,-63.25 359.21,-25.5 76.78,19.67 23.89,88.2 -56.75,196.82 -32.11,43.28 -124.99,40.93 -178.19,7.67 -37.79,-23.62 -123.9,-110.68 -124.27,-179z"/>
  <path class="fil8 str8" d="M18432.75 23052.75c75.01,-37.54 186.1,94.94 263.01,187.16 39.03,46.82 45.73,114.78 20.24,174.98 -47.73,112.55 -50.32,164.62 -214.14,187.01 -46,6.28 -232.13,-108.14 -174.62,-354.8 38.15,-163.54 60.65,-179.06 105.51,-194.35z"/>
  <text x="75.2" y="2902.65"  class="fil6 fnt7">Р</text>
  <text x="418.4" y="3024.24"  class="fil6 fnt8">н</text>
  <text x="3099.71" y="3243.89"  class="fil6 fnt7">Р</text>
  <text x="3442.92" y="3365.48"  class="fil6 fnt8">к</text>
  <text x="4119.68" y="3418.52"  class="fil6 fnt7">Q</text>
  <text x="4904.27" y="583.77"  class="fil6 fnt7">R</text>
  <text x="5704.46" y="3992.34"  class="fil6 fnt7">S</text>
  <text x="8315.84" y="3419.12"  class="fil6 fnt7">j</text>
  <text x="8959.01" y="3022.94"  class="fil6 fnt7">T</text>
  <text x="9302.21" y="3144.53"  class="fil6 fnt8">н</text>
  <text x="11931.84" y="2734.56"  class="fil6 fnt7">T</text>
  <text x="12275.04" y="2856.14"  class="fil6 fnt8">к</text>
  <text x="15677.24" y="3177.48"  class="fil6 fnt7">U</text>
  <text x="16222.38" y="3331.64"  class="fil6 fnt8">к</text>
  <text x="12799.47" y="3160.9"  class="fil6 fnt7">U</text>
  <text x="13352.47" y="3328.21"  class="fil6 fnt8">н</text>
  <text x="18957.06" y="2552.17"  class="fil6 fnt7">Р</text>
  <text x="19300.27" y="2673.76"  class="fil6 fnt8">н</text>
  <g>
   <path class="fil9" d="M3283.14 14068.31l0 95.32 -86.63 -47.66 86.63 -47.66zm1040.39 57.51l-1047.91 0 0 -19.7 1047.91 0 0 19.7zm-7.22 -55.6l83.16 45.75 -83.16 45.75 0 -91.5z"/>
  </g>
  <text x="8863.22" y="13958.09"  class="fil6 fnt9">7</text>
  <text x="10665.93" y="13961.71"  class="fil6 fnt9">8</text>
  <text x="12647.81" y="13961.71"  class="fil6 fnt9">9</text>
  <text x="16276.38" y="13961.71"  class="fil6 fnt9">10</text>
  <g>
   <path class="fil9" d="M12165.44 14064.49l0 102.97 -93.59 -51.48 93.59 -51.48zm1186.91 61.33l-1195.02 0 0 -19.7 1195.02 0 0 19.7zm-8.11 -61.33l93.59 51.48 -93.59 51.48 0 -102.97z"/>
  </g>
  <g>
   <path class="fil9" d="M19543.02 14167.46l0 -102.97 93.59 51.48 -93.59 51.48zm-6019.72 -61.33l6027.83 0 0 19.7 -6027.83 0 0 -19.7zm8.11 61.33l-93.59 -51.48 93.59 -51.48 0 102.97z"/>
  </g>
  <line class="fil1 str2" x1="5167.87" y1="883.57" x2="5167.87" y2= "25462.63" />
  <g>
   <path class="fil9" d="M5266.07 14064.49l0 102.97 -93.59 -51.48 93.59 -51.48zm843.65 61.33l-851.76 0 0 -19.7 851.76 0 0 19.7zm-8.11 -61.33l93.59 51.48 -93.59 51.48 0 -102.97z"/>
  </g>
  <g>
   <path class="fil9" d="M4489.62 14064.5l0 102.97 -93.59 -51.48 93.59 -51.48zm592.78 61.33l-600.9 0 0 -19.7 600.9 0 0 19.7zm-8.11 -61.33l93.59 51.48 -93.59 51.48 0 -102.97z"/>
  </g>
  <text x="7682.95" y="13958.09"  class="fil6 fnt9">6</text>
  <text x="6553.98" y="13958.09"  class="fil6 fnt9">5</text>
  <text x="5584.73" y="13959.94"  class="fil6 fnt9">4</text>
  <text x="4724.91" y="13959.94"  class="fil6 fnt9">3</text>
  <text x="3695.67" y="13959.94"  class="fil6 fnt9">2</text>
  <text x="1889" y="13959.94"  class="fil6 fnt9">1</text>
  <path class="fil1 str13" d="M149.9 12520.43c87.83,-24.81 301,117.53 348.12,-130.72 48.96,-257.99 135.48,-552.57 267.88,-855.3"/>
  <path class="fil1 str0" d="M765.9 11534.42c376.12,-859.98 1122.56,-1785.68 2430.61,-2124.8"/>
  <path class="fil1 str0" d="M3196.52 9409.62c356.7,-92.47 755.16,-141.32 1199.25,-133.34 1.24,0.02 2.48,0.05 3.71,0.09"/>
  <path class="fil1 str0" d="M4399.48 9276.37c373.8,12.06 567.41,827 760.35,1710.65"/>
  <path class="fil1 str0" d="M5159.83 10987.02c224.37,1027.55 447.85,2148.02 952.76,2207.04 33.53,3.92 64.15,2.62 93.01,-1.93"/>
  <path class="fil1 str0" d="M6205.6 13192.14c120.28,-18.98 210.24,-94.5 354.49,-85.02 242.11,15.9 392.48,174.47 623.38,195.39"/>
  <path class="fil1 str0" d="M7183.47 13302.5c26.95,2.45 55,3.01 84.42,1.26 338.16,-20.16 513.26,-2641.12 1101.12,-4924.13"/>
  <path class="fil1 str0" d="M8369.02 8379.63c169.22,-657.22 372.65,-1286.42 624.02,-1817.51 202.27,-427.35 373.99,-621.47 582.91,-759.65"/>
  <path class="fil1 str0" d="M9575.95 5802.46c136.44,-90.23 288.73,-156.63 475.75,-248.54 242.21,-119.05 729.84,-317.83 950.28,-320 354.39,-3.5 707,600.46 1046.24,1195.73"/>
  <path class="fil1 str0" d="M12048.21 6429.65c287.49,504.43 565.4,1002.62 826.71,1119.64 134.19,60.1 297.74,-220.05 562.9,-238.63"/>
  <path class="fil1 str0" d="M13437.82 7310.67c13.51,-0.95 27.29,-1.21 41.34,-0.72 372.52,13.03 938.06,560.27 1297.96,599.61 335.55,36.67 987.35,-1112.1 1248.78,-813.38 1043.08,1191.93 1818.94,4761.33 2970.39,5363.61 93.96,49.15 284.71,30.49 356.77,-127.42 148.02,-324.35 162.55,-967.19 371.43,-917.38"/>
  <path class="fil1 str0" d="M3155.9 3458.43c122.65,208.04 208.39,366.3 367.04,352.82 231.27,-19.64 257.85,-214.03 503.8,-238.46 110.3,-10.96 248.56,22.73 372.74,147.72"/>
  <path class="fil1 str0" d="M4399.48 3720.51c145.82,146.77 272.23,419.43 311.16,893.52 103.03,-689.44 366.98,-3331.7 449.62,-3854.18"/>
  <path class="fil1 str0" d="M817.76 3041.62c211.07,-252.65 548.73,-479.28 1031.61,-470.11 778.82,14.79 1087.44,510.34 1300.61,874.57"/>
  <path class="fil1 str0" d="M5184.35 883.57c-7.85,-78.58 -13.96,-133.37 -18.03,-160.03 -1.89,10.63 -3.92,22.76 -6.06,36.31m24.09 123.72c92.57,926.5 425.97,5162.74 475.81,5676.99 109.02,-440.57 317.05,-1603.9 535.05,-2458.96"/>
  <path class="fil1 str0" d="M6195.21 4101.59c141.63,-555.57 176.72,-997.29 302.33,-1009.8 323.18,-24.08 -12.44,1152.81 685.93,863.98"/>
  <path class="fil1 str0" d="M8366.54 3845.18c13.5,1.05 27.45,0.81 41.87,-0.89 270.58,-31.83 769.13,-93.07 1096.12,-410.59 22.12,-21.48 43.18,-43.37 63.43,-65.56"/>
  <path class="fil1 str0" d="M9567.96 3368.15c340.31,-373.09 449.01,-832.73 1442.55,-887.16 513.83,-28.15 818.28,201.18 1061.34,465.24"/>
  <path class="fil1 str0" d="M12071.85 2946.23c304.58,330.92 512.75,716.38 915.7,718.06 204.67,0.86 336.13,-46.76 445.06,-113.73"/>
  <path class="fil1 str0" d="M13432.61 3550.56c200.9,-123.52 325.24,-312.91 691.02,-385.65 203.53,-40.47 441.89,-52.81 692.21,-80.91 352.11,-39.54 666.52,65.74 1131.4,374.12"/>
  <path class="fil1 str0" d="M15946.9 3457.9c45.1,29.92 91.97,61.97 140.07,95.76 119.86,84.2 201.62,78.21 432.46,87.11 394.73,15.24 813.21,-141.37 1237.34,-114.75 519.8,32.61 718.22,41.32 1242.68,172.6 225.33,56.41 257.53,-267.14 436.89,-567.1 58.59,-97.98 126.21,-196.87 200.28,-289.99"/>
  <path class="fil1 str14" d="M-0 6708l755.87 0 0 -1810.83c178.97,302.16 391.8,492.54 657.61,508.07l2986 0c313.62,8.12 313.44,1177.15 313.44,1302.75l843.31 0"/>
  <text x="1640.05" y="7380.28"  class="fil6 fnt10">Потенциал </text>
  <text x="1817.92" y="7934.79"  class="fil6 fnt10">действия </text>
  <text x="1923.66" y="8489.31"  class="fil6 fnt10">СА-узла</text>
  <g transform="matrix(1.01411 0 0 1 -9231.03 -11800.7)">
   <text x="10048.28" y="17900.08"  class="fil10 str16 fnt11">Na</text>
  </g>
  <g transform="matrix(1.01411 0 0 1 -8660.7 -12066.9)">
   <text x="10048.28" y="17900.08"  class="fil10 str16 fnt12">+</text>
  </g>
  <line class="fil1 str2" x1="4712.92" y1="4497.61" x2="4712.92" y2= "16082.24" />
  <g>
   <path class="fil9" d="M1267.93 6780.62l0 -531.96 19.7 0 0 531.96 -19.7 0zm101.38 -14.43l-91.53 166.4 -91.53 -166.4 183.07 0z"/>
  </g>
  <g transform="matrix(1.01411 0 0 1 -8169.28 -11800.7)">
   <text x="10048.28" y="17900.08"  class="fil10 str16 fnt11">С</text>
   <text x="10350.39" y="17900.08"  class="fil10 str16 fnt11">a</text>
  </g>
  <g transform="matrix(1.01411 0 0 1 -7598.96 -12066.9)">
   <text x="10048.28" y="17900.08"  class="fil10 str16 fnt12">++</text>
  </g>
  <g>
   <path class="fil9" d="M2536.49 6780.62l0 -531.96 19.7 0 0 531.96 -19.7 0zm101.38 -14.43l-91.53 166.4 -91.53 -166.4 183.07 0z"/>
  </g>
  <g transform="matrix(1.01411 0 0 1 -6570.74 -11800.7)">
   <text x="10048.28" y="17900.08"  class="fil11 str18 fnt11">К</text>
  </g>
  <g transform="matrix(1.01411 0 0 1 -6283.19 -12066.9)">
   <text x="10048.28" y="17900.08"  class="fil11 str18 fnt12">+</text>
  </g>
  <g>
   <path class="fil9" d="M3890.14 6415.06l-183.07 0 91.53 -166.4 91.53 166.4zm-101.38 517.54l0 -531.96 19.7 0 0 531.96 -19.7 0z"/>
  </g>
  <line class="fil1 str3" x1="1971.31" y1="24504.15" x2="1693.38" y2= "24504.15" />
  <line class="fil1 str3" x1="3430.4" y1="24504.15" x2="3152.46" y2= "24504.15" />
  <line class="fil1 str3" x1="4153.43" y1="24504.15" x2="3875.49" y2= "24504.15" />
  <line class="fil1 str3" x1="2720.4" y1="24504.15" x2="2442.46" y2= "24504.15" />
  <line class="fil1 str3" x1="1199.43" y1="24504.15" x2="921.49" y2= "24504.15" />
  <g>
   <path class="fil9" d="M7466.29 22895.41l0 1122.94 -49.24 0 0 -1122.94 49.24 0zm-153.33 20.29l128.71 -233.98 128.71 233.98 -257.42 0z"/>
  </g>
  <g>
   <path class="fil9" d="M7837.57 22895.41l0 1122.94 -49.24 0 0 -1122.94 49.24 0zm-153.33 20.29l128.71 -233.98 128.71 233.98 -257.42 0z"/>
  </g>
  <g>
   <path class="fil9" d="M8194.52 22895.41l0 1122.94 -49.24 0 0 -1122.94 49.24 0zm-153.33 20.29l128.71 -233.98 128.71 233.98 -257.42 0z"/>
  </g>
  <line class="fil1 str3" x1="9040.48" y1="24491.18" x2="8762.54" y2= "24491.18" />
  <line class="fil1 str3" x1="9652.77" y1="24491.18" x2="9374.82" y2= "24491.18" />
  <line class="fil1 str3" x1="10219.46" y1="24491.18" x2="9941.53" y2= "24491.18" />
  <line class="fil1 str3" x1="10857.87" y1="24491.18" x2="10579.93" y2= "24491.18" />
  <g transform="matrix(1.01411 0 0 1 5634.99 4180.79)">
   <text x="10048.28" y="17900.08"  class="fil4 str5 fnt13">+</text>
  </g>
  <g transform="matrix(1.01411 0 0 1 6403.63 4180.79)">
   <text x="10048.28" y="17900.08"  class="fil4 str5 fnt13">+</text>
  </g>
  <g transform="matrix(1.01411 0 0 1 7165.72 4180.79)">
   <text x="10048.28" y="17900.08"  class="fil4 str5 fnt13">+</text>
  </g>
  <g transform="matrix(1.01411 0 0 1 7869.2 4180.79)">
   <text x="10048.28" y="17900.08"  class="fil4 str5 fnt13">+</text>
  </g>
  <g transform="matrix(1.01411 0 0 1 8595.92 4180.79)">
   <text x="10048.28" y="17900.08"  class="fil4 str5 fnt13">+</text>
  </g>
  <line class="fil1 str3" x1="16941.99" y1="24504.15" x2="16664.05" y2= "24504.15" />
  <line class="fil1 str3" x1="18401.08" y1="24504.15" x2="18123.13" y2= "24504.15" />
  <line class="fil1 str3" x1="19124.1" y1="24504.15" x2="18846.17" y2= "24504.15" />
  <line class="fil1 str3" x1="17691.07" y1="24504.15" x2="17413.13" y2= "24504.15" />
  <line class="fil1 str3" x1="16170.1" y1="24504.15" x2="15892.17" y2= "24504.15" />
  <path class="fil1 str14" d="M2070.09 19068.3l2329.39 0c230.65,-42.53 317.3,-239.73 313.44,-534.12l0 -2559.91c287.54,504.5 760.49,793.9 1482.27,794.68l2171.35 0c1524.55,-16.96 2622.72,733.49 3278.75,2279.82l1042.21 0"/>
  <g>
   <path class="fil9" d="M1457.85 14911.96l0 4306.16 -19.7 0 0 -4306.16 19.7 0zm-9.85 -123.19l105.05 245.13 -6.57 -3.18 -6.57 -2.97 -6.56 -2.77 -6.57 -2.57 -6.57 -2.35 -6.57 -2.16 -6.56 -1.95 -6.57 -1.74 -6.57 -1.55 -6.57 -1.33 -6.56 -1.13 -6.57 -0.92 -6.57 -0.72 -6.57 -0.51 -6.56 -0.32 -6.57 -0.1 -6.57 0.1 -6.57 0.32 -6.56 0.51 -6.57 0.72 -6.57 0.92 -6.57 1.13 -6.56 1.33 -6.57 1.55 -6.57 1.74 -6.57 1.95 -6.56 2.16 -6.57 2.35 -6.57 2.57 -6.57 2.77 -6.56 2.97 -6.57 3.18 0 0 105.05 -245.13z"/>
  </g>
  <g>
   <path class="fil9" d="M13160.31 16713.67l-11712.3 0 0 -19.7 11712.3 0 0 19.7zm123.19 -9.85l-245.13 105.05 3.18 -6.57 2.97 -6.56 2.77 -6.57 2.57 -6.57 2.35 -6.57 2.16 -6.56 1.95 -6.57 1.74 -6.57 1.55 -6.57 1.33 -6.56 1.13 -6.57 0.92 -6.57 0.72 -6.57 0.51 -6.56 0.32 -6.57 0.1 -6.57 -0.1 -6.57 -0.32 -6.57 -0.51 -6.56 -0.72 -6.57 -0.92 -6.57 -1.13 -6.57 -1.33 -6.56 -1.55 -6.57 -1.74 -6.57 -1.95 -6.57 -2.16 -6.56 -2.35 -6.57 -2.57 -6.57 -2.77 -6.57 -2.97 -6.56 -3.18 -6.57 0 0 245.13 105.05z"/>
  </g>
  <line class="fil1 str19" x1="1448" y1="19069.95" x2="12397.61" y2= "19069.95" />
  <line class="fil1 str19" x1="1448" y1="18540.72" x2="4712.92" y2= "18540.72" />
  <text x="1978.65" y="19568.2"  class="fil6 fnt14">Потенциал </text>
  <text x="2156.52" y="20122.71"  class="fil6 fnt14">действия </text>
  <text x="2271.85" y="20677.23"  class="fil6 fnt14">АВ-узла</text>
  <text x="777.07" y="19237.06"  class="fil6 fnt14">-90</text>
  <text x="777.07" y="18706.18"  class="fil6 fnt14">-70</text>
  <text x="777.07" y="18315.36"  class="fil6 fnt14">-60</text>
  <text x="777.07" y="17670.51"  class="fil6 fnt14">-30</text>
  <text x="1056.13" y="16875.83"  class="fil6 fnt14">0</text>
  <text x="860.41" y="16116.95"  class="fil6 fnt14">30</text>
  <text x="931.71" y="15099.84"  class="fil6 fnt14">U</text>
  <text x="1680.61" y="15099.84"  class="fil6 fnt14">мВ</text>
  <text x="13054.82" y="16493.75"  class="fil6 fnt14">t</text>
  <g>
   <path class="fil9" d="M6361.6 25862.3l0 183.07 -166.4 -91.53 166.4 -91.53zm1852.96 101.38l-1867.39 0 0 -19.7 1867.39 0 0 19.7zm-14.43 -101.38l166.4 91.53 -166.4 91.53 0 -183.07z"/>
  </g>
  <path class="fil1 str20" d="M15960.45 3455.75c45.1,29.92 91.62,61.72 139.73,95.51 119.86,84.2 201.62,78.21 432.46,87.11 394.73,15.24 813.21,-141.37 1237.34,-114.75 519.8,32.61 718.22,41.32 1242.68,172.6 225.33,56.41 257.53,-267.14 436.89,-567.1 58.59,-97.98 126.21,-196.87 200.28,-289.99"/>
  <path class="fil1 str21" d="M15960.45 7046.54c28.98,5.5 55.36,20.63 78.65,47.24 1043.08,1191.93 1818.94,4761.33 2970.39,5363.61 93.96,49.15 284.71,30.49 356.77,-127.42 148.02,-324.35 162.55,-967.19 371.43,-917.38"/>
  <path class="fil1 str21" d="M13451.03 7308.27c13.51,-0.95 27.29,-1.21 41.34,-0.72 372.52,13.03 938.06,560.27 1297.96,599.61 305.66,33.4 873.74,-916.85 1170.13,-860.61"/>
  <line class="fil1 str22 js-green-line" x1="756.8" y1="595.82" x2="756.8" y2= "16734.12" />
  <path class="fil1 str23" d="M755.75 3123.78c17.23,-25.8 36.23,-51.31 57.08,-76.13"/>
  <circle class="fil12 str24" cx="755.87" cy="3123.61" r="89.72"/>
  <path class="fil1 str20" d="M13445.82 3548.17c200.9,-123.52 357.26,-269.69 717.08,-367.74 302.38,-82.39 1072.24,-216.23 1797.56,275.3"/>
  <path class="fil1 str21" d="M12071.85 2946.23c304.58,330.92 512.75,716.38 915.7,718.06 204.67,0.86 336.13,-46.76 445.06,-113.73"/>
  <path class="fil1 str21" d="M9567.96 3368.15c340.31,-373.09 449.01,-832.73 1442.55,-887.16 513.83,-28.15 818.28,201.18 1061.34,465.24"/>
  <path class="fil1 str21" d="M8387.49 3845.76c270.58,-31.83 790.06,-94.54 1117.05,-412.06 22.12,-21.48 43.18,-43.37 63.43,-65.56"/>
  <path class="fil1 str21" d="M7183.47 3924.07c251.36,-143.73 158.48,-480.19 450.39,-472.86 144.32,11.91 187.6,364.06 373.69,432.11 15.48,5.65 101.99,45.99 367.13,-30.8"/>
  <path class="fil1 str21" d="M6195.21 4101.59c141.63,-555.57 176.72,-997.29 302.33,-1009.8 232.83,-23.19 158.7,861.31 422.79,902.18 10.11,1.56 159.16,19.84 263.14,-69.92"/>
  <path class="fil1 str21" d="M5184.35 883.57c-7.85,-78.58 -13.96,-133.37 -18.03,-160.03 -1.89,10.63 -3.92,22.76 -6.06,36.31m24.09 123.72c92.57,926.5 425.97,5162.74 475.81,5676.99 109.02,-440.57 317.05,-1603.9 535.05,-2458.96"/>
  <path class="fil1 str21" d="M4399.48 3720.51c145.82,146.77 272.23,419.43 311.16,893.52 103.03,-689.44 366.98,-3331.7 449.62,-3854.18"/>
  <path class="fil1 str21" d="M3155.9 3458.43c122.65,208.04 208.39,366.3 367.04,352.82 231.27,-19.64 257.85,-214.03 503.8,-238.46 110.3,-10.96 248.56,22.73 372.74,147.72"/>
  <path class="fil1 str21" d="M817.76 3041.62c211.07,-252.65 548.73,-479.28 1031.61,-470.11 778.82,14.79 1087.44,510.34 1300.61,874.57"/>
  <path class="fil1 str21" d="M765.9 11534.42c376.12,-859.98 1122.56,-1785.68 2430.61,-2124.8"/>
  <path class="fil1 str21" d="M3196.52 9409.62c356.7,-92.47 755.16,-141.32 1199.25,-133.34 1.24,0.02 2.48,0.05 3.71,0.09"/>
  <path class="fil1 str21" d="M4399.48 9276.37c373.8,12.06 567.41,827 760.35,1710.65"/>
  <path class="fil1 str21" d="M5159.83 10987.02c224.37,1027.55 447.85,2148.02 952.76,2207.04 33.53,3.92 64.15,2.62 93.01,-1.93"/>
  <path class="fil1 str21" d="M6205.6 13192.14c120.28,-18.98 210.24,-94.5 354.49,-85.02 242.11,15.9 392.48,174.47 623.38,195.39"/>
  <path class="fil1 str21" d="M7183.47 13302.5c26.95,2.45 55,3.01 84.42,1.26 338.16,-20.16 513.26,-2641.12 1101.12,-4924.13"/>
  <path class="fil1 str21" d="M8369.02 8379.63c169.22,-657.22 372.65,-1286.42 624.02,-1817.51 202.27,-427.35 373.99,-621.47 582.91,-759.65"/>
  <path class="fil1 str21" d="M9575.95 5802.46c136.44,-90.23 288.73,-156.63 475.75,-248.54 242.21,-119.05 729.84,-317.83 950.28,-320 354.39,-3.5 707,600.46 1046.24,1195.73"/>
  <path class="fil1 str21" d="M12048.21 6429.65c287.49,504.43 565.4,1002.62 826.71,1119.64 134.19,60.1 297.74,-220.05 562.9,-238.63"/>
  <circle class="fil12 str24" cx="18999.42" cy="3698.63" r="89.72"/>
  <circle class="fil12 str24" cx="19636.61" cy="2841.52" r="89.72"/>
  <circle class="fil12 str24" cx="12071.85" cy="2946.27" r="89.72"/>
  <circle class="fil12 str24" cx="9568.01" cy="3368.09" r="89.72"/>
  <circle class="fil12 str24" cx="8366.54" cy="3845.2" r="89.72"/>
  <circle class="fil12 str24" cx="15947.25" cy="3458.15" r="89.72"/>
  <circle class="fil12 str24" cx="13429.11" cy="3545.11" r="89.72"/>
  <circle class="fil12 str24" cx="7183.47" cy="3916.71" r="89.72"/>
  <circle class="fil12 str24" cx="6195.2" cy="4101.58" r="89.72"/>
  <circle class="fil12 str24" cx="5166.32" cy="775.66" r="89.72"/>
  <circle class="fil12 str24" cx="4712.92" cy="4602.94" r="89.72"/>
  <circle class="fil12 str24" cx="4399.48" cy="3720.52" r="89.72"/>
  <circle class="fil12 str24" cx="3196.52" cy="3525.28" r="89.72"/>
  <circle class="fil13 str25" cx="765.87" cy="11534.49" r="89.72"/>
  <circle class="fil13 str26" cx="3196.51" cy="9409.63" r="89.72"/>
  <circle class="fil13 str25" cx="4395.77" cy="9276.28" r="89.72"/>
  <circle class="fil12 str23" cx="5159.84" cy="11039.13" r="89.72"/>
  <circle class="fil12 str23" cx="6205.6" cy="13192.14" r="89.72"/>
  <circle class="fil12 str23" cx="7183.48" cy="13302.5" r="89.72"/>
  <circle class="fil12 str23" cx="8366.54" cy="8418.91" r="89.72"/>
  <circle class="fil13 str25" cx="9575.95" cy="5802.44" r="89.72"/>
  <circle class="fil13 str25" cx="12074.06" cy="6462.74" r="89.72"/>
  <circle class="fil14 str25" cx="13428.23" cy="7311.45" r="89.72"/>
  <circle class="fil12 str25" cx="15937.37" cy="7047.44" r="89.72"/>
  <circle class="fil12 str23" cx="18996.26" cy="12459.78" r="89.72"/>
  <circle class="fil12 str23" cx="19683.09" cy="11414.42" r="89.72"/>
  <g>
   <path class="fil9" d="M12494.28 21678.15l-198.37 644.15 0 0 -7.45 -16.87 -7.79 -16.47 -8.12 -16.07 -8.46 -15.68 -8.79 -15.28 -9.13 -14.89 -9.46 -14.5 -9.8 -14.09 -10.13 -13.7 -10.48 -13.31 -10.8 -12.91 -11.15 -12.51 -11.47 -12.12 -11.82 -11.73 -12.15 -11.32 -12.48 -10.93 -12.82 -10.54 -13.16 -10.14 -13.49 -9.75 -13.83 -9.35 -14.16 -8.96 -14.51 -8.56 -14.83 -8.16 -15.17 -7.77 -15.51 -7.38 -15.83 -6.98 -16.17 -6.58 -16.51 -6.19 -16.85 -5.79 -17.18 -5.4 -17.51 -5 -17.85 -4.61 603.24 -300.62zm-94.06 3183.2l-35.96 33.64 -87.22 -96.52 -81.15 -96.57 -75.12 -96.63 -69.14 -96.68 -63.2 -96.77 -57.3 -96.83 -51.44 -96.91 -45.64 -96.97 -39.85 -97.04 -34.12 -97.09 -28.43 -97.15 -22.77 -97.2 -17.15 -97.22 -11.6 -97.25 -6.08 -97.25 -0.59 -97.24 4.81 -97.23 10.2 -97.22 15.49 -97.17 20.76 -97.12 25.98 -97.06 31.1 -97.01 36.19 -96.92 41.22 -96.87 46.19 -96.81 51.12 -96.74 55.97 -96.68 60.8 -96.61 65.54 -96.56 70.25 -96.52 74.9 -96.46 79.51 -96.42 37.54 31.85 -78.6 95.33 -73.99 95.29 -69.33 95.24 -64.61 95.18 -59.85 95.14 -55.05 95.07 -50.19 95.01 -45.31 94.94 -40.37 94.88 -35.4 94.81 -30.39 94.74 -25.33 94.69 -20.23 94.63 -15.1 94.59 -9.91 94.54 -4.69 94.52 0.59 94.49 5.9 94.5 11.27 94.5 16.68 94.53 22.16 94.56 27.68 94.61 33.26 94.64 38.91 94.71 44.6 94.78 50.36 94.84 56.16 94.92 62.04 94.98 67.98 95.05 73.94 95.12 79.97 95.18 86.08 95.24z"/>
  </g>
  <g>
   <path class="fil9" d="M12879.88 25010.2l198.37 -644.15 0 0 7.45 16.87 7.79 16.47 8.12 16.07 8.46 15.68 8.79 15.28 9.13 14.89 9.46 14.5 9.8 14.09 10.13 13.7 10.48 13.31 10.8 12.91 11.15 12.51 11.47 12.12 11.82 11.73 12.15 11.32 12.48 10.93 12.82 10.54 13.16 10.14 13.49 9.75 13.83 9.35 14.16 8.96 14.5 8.56 14.84 8.16 15.17 7.77 15.5 7.38 15.84 6.98 16.17 6.58 16.51 6.19 16.85 5.79 17.17 5.4 17.52 5 17.85 4.61 -603.24 300.62zm94.06 -3183.2l35.96 -33.64 87.22 96.52 81.15 96.57 75.12 96.63 69.14 96.68 63.2 96.77 57.3 96.83 51.44 96.91 45.64 96.97 39.85 97.04 34.12 97.09 28.43 97.15 22.77 97.2 17.15 97.22 11.6 97.25 6.08 97.25 0.59 97.25 -4.81 97.22 -10.2 97.22 -15.49 97.17 -20.76 97.12 -25.98 97.06 -31.1 97.01 -36.19 96.92 -41.22 96.87 -46.19 96.81 -51.12 96.74 -55.97 96.68 -60.8 96.61 -65.54 96.56 -70.25 96.52 -74.9 96.46 -79.51 96.42 -37.54 -31.85 78.6 -95.33 73.99 -95.29 69.33 -95.24 64.61 -95.18 59.85 -95.14 55.05 -95.07 50.19 -95.01 45.31 -94.94 40.37 -94.88 35.4 -94.81 30.39 -94.74 25.33 -94.69 20.23 -94.63 15.1 -94.59 9.91 -94.54 4.69 -94.51 -0.59 -94.5 -5.9 -94.5 -11.27 -94.5 -16.68 -94.53 -22.16 -94.56 -27.68 -94.61 -33.26 -94.64 -38.91 -94.71 -44.6 -94.78 -50.36 -94.84 -56.16 -94.92 -62.04 -94.98 -67.98 -95.05 -73.94 -95.12 -79.97 -95.18 -86.08 -95.24z"/>
  </g>
  <g>
   <path class="fil9" d="M6959.79 23816.52l0 -1122.94 49.24 0 0 1122.94 -49.24 0zm153.33 -20.29l-128.71 233.98 -128.71 -233.98 257.42 0z"/>
  </g>
  <g>
   <path class="fil9" d="M6666.2 23816.52l0 -1122.94 49.24 0 0 1122.94 -49.24 0zm153.33 -20.29l-128.71 233.98 -128.71 -233.98 257.42 0z"/>
  </g>
  <g>
   <path class="fil9" d="M6370.28 23816.52l0 -1122.94 49.24 0 0 1122.94 -49.24 0zm153.33 -20.29l-128.71 233.98 -128.71 -233.98 257.42 0z"/>
  </g>
  <g>
   <path class="fil9" d="M5764.55 23816.52l0 -1122.94 49.24 0 0 1122.94 -49.24 0zm153.33 -20.29l-128.71 233.98 -128.71 -233.98 257.42 0z"/>
  </g>
  <g>
   <path class="fil9" d="M5341.67 23816.52l0 -1122.94 49.24 0 0 1122.94 -49.24 0zm153.33 -20.29l-128.71 233.98 -128.71 -233.98 257.42 0z"/>
  </g>
  <g>
   <path class="fil9" d="M4899.62 23818.01l0 -1122.94 49.24 0 0 1122.94 -49.24 0zm153.33 -20.29l-128.71 233.98 -128.71 -233.98 257.42 0z"/>
  </g>
  <g>
   <path class="fil9" d="M9399.46 22895.41l0 1122.94 -49.24 0 0 -1122.94 49.24 0zm-153.33 20.29l128.71 -233.98 128.71 233.98 -257.42 0z"/>
  </g>
  <g>
   <path class="fil9" d="M9770.74 22895.41l0 1122.94 -49.24 0 0 -1122.94 49.24 0zm-153.33 20.29l128.71 -233.98 128.71 233.98 -257.42 0z"/>
  </g>
  <g>
   <path class="fil9" d="M10127.7 22895.41l0 1122.94 -49.24 0 0 -1122.94 49.24 0zm-153.33 20.29l128.71 -233.98 128.71 233.98 -257.42 0z"/>
  </g>
  <text x="6874.75" y="3671.36"  class="fil6 fnt15">L</text>
  <g transform="matrix(1.01411 0 0 1 -2619.24 7269.14)">
   <text x="10048.28" y="17900.08"  class="fil7 str11 fnt16">K</text>
  </g>
  <g transform="matrix(1.01411 0 0 1 -2327.08 7030.57)">
   <text x="10048.28" y="17900.08"  class="fil7 str11 fnt17">+</text>
  </g>
  <g transform="matrix(1.01411 0 0 1 -661.056 7269.14)">
   <text x="10048.28" y="17900.08"  class="fil7 str11 fnt16">K</text>
  </g>
  <g transform="matrix(1.01411 0 0 1 -368.892 7030.57)">
   <text x="10048.28" y="17900.08"  class="fil7 str11 fnt17">+</text>
  </g>
  <g transform="matrix(1.01411 0 0 1 -5328.52 7355.21)">
   <text x="10048.28" y="17900.08"  class="fil7 str11 fnt18">Na</text>
  </g>
  <g transform="matrix(1.01411 0 0 1 -4724.61 7012.75)">
   <text x="10048.28" y="17900.08"  class="fil7 str11 fnt19">+</text>
  </g>
  <g transform="matrix(1.01411 0 0 1 -3956.22 7355.21)">
   <text x="10048.28" y="17900.08"  class="fil7 str11 fnt18">Ca</text>
  </g>
  <g transform="matrix(1.01411 0 0 1 -3455.12 7012.75)">
   <text x="10048.28" y="17900.08"  class="fil7 str11 fnt19">+</text>
  </g>
  <g transform="matrix(1.01411 0 0 1 -3232.96 7012.75)">
   <text x="10048.28" y="17900.08"  class="fil7 str11 fnt19">+</text>
  </g>
  <g transform="matrix(1.01411 0 0 1 -6696.41 7269.14)">
   <text x="10048.28" y="17900.08"  class="fil7 str11 fnt16">Na</text>
  </g>
  <g transform="matrix(1.01411 0 0 1 -6248.36 7030.57)">
   <text x="10048.28" y="17900.08"  class="fil7 str11 fnt17">+</text>
  </g>
  <g transform="matrix(1.01411 0 0 1 7172.98 7355.21)">
   <text x="10048.28" y="17900.08"  class="fil7 str11 fnt18">K</text>
  </g>
  <g transform="matrix(1.01411 0 0 1 7592.39 7012.75)">
   <text x="10048.28" y="17900.08"  class="fil7 str11 fnt19">+</text>
  </g>
  <g transform="matrix(1.01411 0 0 1 7040.07 3644.75)">
   <text x="10048.28" y="17900.08"  class="fil7 str11 fnt18">Na</text>
  </g>
  <g transform="matrix(1.01411 0 0 1 7643.97 3302.29)">
   <text x="10048.28" y="17900.08"  class="fil7 str11 fnt19">+</text>
  </g>
  <g transform="matrix(1.01411 0 0 1 -660.613 3728.49)">
   <text x="10048.28" y="17900.08"  class="fil7 str11 fnt16">Na</text>
  </g>
  <g transform="matrix(1.01411 0 0 1 -212.562 3489.93)">
   <text x="10048.28" y="17900.08"  class="fil7 str11 fnt17">+</text>
  </g>
  <g transform="matrix(1.01411 0 0 1 -2675.83 3778.61)">
   <text x="10048.28" y="17900.08"  class="fil7 str11 fnt18">K</text>
  </g>
  <g transform="matrix(1.01411 0 0 1 -2256.41 3436.14)">
   <text x="10048.28" y="17900.08"  class="fil7 str11 fnt19">+</text>
  </g>
  <g transform="matrix(1.01411 0 0 1 -3868.89 3774.95)">
   <text x="10048.28" y="17900.08"  class="fil7 str11 fnt20">Ca</text>
  </g>
  <g transform="matrix(1.01411 0 0 1 -3470.13 3570.01)">
   <text x="10048.28" y="17900.08"  class="fil7 str11 fnt21">+</text>
  </g>
  <g transform="matrix(1.01411 0 0 1 -3273.69 3571.65)">
   <text x="10048.28" y="17900.08"  class="fil7 str11 fnt21">+</text>
  </g>
  <g transform="matrix(1.01411 0 0 1 -5205.54 3762.65)">
   <text x="10048.28" y="17900.08"  class="fil7 str11 fnt16">Na</text>
  </g>
  <g transform="matrix(1.01411 0 0 1 -4757.49 3524.09)">
   <text x="10048.28" y="17900.08"  class="fil7 str11 fnt17">+</text>
  </g>
  <g transform="matrix(1.01411 0 0 1 -6819.53 3770.11)">
   <text x="10048.28" y="17900.08"  class="fil7 str11 fnt18">Na</text>
  </g>
  <g transform="matrix(1.01411 0 0 1 -6215.63 3427.65)">
   <text x="10048.28" y="17900.08"  class="fil7 str11 fnt19">+</text>
  </g>
  <g transform="matrix(1.01411 0 0 1 -8273.61 3752.86)">
   <text x="10048.28" y="17900.08"  class="fil7 str11 fnt16">K</text>
  </g>
  <g transform="matrix(1.01411 0 0 1 -7981.44 3514.3)">
   <text x="10048.28" y="17900.08"  class="fil7 str11 fnt17">+</text>
  </g>
 </g>
</svg>
