<?xml version="1.0" encoding="UTF-8"?>
<!DOCTYPE svg PUBLIC "-//W3C//DTD SVG 1.1//EN" "http://www.w3.org/Graphics/SVG/1.1/DTD/svg11.dtd">
<!-- Creator: CorelDRAW 2019 (64-Bit) -->
<svg xmlns="http://www.w3.org/2000/svg" xml:space="preserve" width="64.3343mm" height="90.7557mm" version="1.1" style="shape-rendering:geometricPrecision; text-rendering:geometricPrecision; image-rendering:optimizeQuality; fill-rule:evenodd; clip-rule:evenodd"
viewBox="0 0 6203.26 8750.87"
 xmlns:xlink="http://www.w3.org/1999/xlink">
 <defs>
  <style type="text/css">
   <![CDATA[
    .str0 {stroke:#2B2A29;stroke-width:0.96;stroke-miterlimit:22.9256}
    .fil1 {fill:#86776F}
    .fil4 {fill:#088AAA}
    .fil2 {fill:#64C7DE}
    .fil5 {fill:#B22D2E}
    .fil3 {fill:#FEC4B9}
    .fil0 {fill:#FF5E56}
    .fil7 {fill:#224C74;fill-rule:nonzero}
    .fil6 {fill:#FD0900;fill-rule:nonzero}
   ]]>
  </style>
 </defs>
 <g id="Layer_x0020_1">
  <metadata id="CorelCorpID_0Corel-Layer"/>
  <polygon class="fil0 str0" points="6003.43,3798.95 5316.04,3844.85 5284.64,3619.09 5979.85,3584.65 "/>
  <polygon class="fil0 str0" points="6078.04,4073.88 5390.65,4119.78 5359.24,3894.02 6054.46,3859.58 "/>
  <ellipse class="fil1 str0" transform="matrix(-4.08009 0.121535 -0.273383 -2.76732 5991.65 3691.79)" rx="12.59" ry="38.16"/>
  <ellipse class="fil1 str0" transform="matrix(-4.08009 0.121535 -0.273383 -2.76732 6066.26 3964.76)" rx="12.59" ry="38.16"/>
  <path class="fil0 str0" d="M938.43 3412.83l-777.69 -286.74c-113.24,101.16 -170.99,230.06 -137.5,404.56l699.17 196.39 -691.3 47.15c-57.56,137.23 -30.82,241.23 53.03,388.85l606.83 -11.79 247.46 -738.42z"/>
  <path class="fil2 str0" d="M869.53 5044.21l-216.35 2271.35c494.25,10.2 503.72,11.81 970.47,-15.21l121.97 -2088.5 -876.09 -167.65z"/>
  <path class="fil0 str0" d="M4088.45 8090.34l-46.73 547.22c494.24,15.08 503.72,17.46 970.47,-22.48l66.98 -730.58 -990.73 205.84z"/>
  <path class="fil2 str0" d="M2621.86 3649.26l-6.33 -44.3c570.88,-268.34 921.6,-461.48 847.65,-541.1l-2012.29 -509 -750.8 7.3c-59.92,-133.72 -70.57,-269.55 -4.75,-408.56l452.41 18.55 -443.42 -188.05c-11.4,-145.24 18.46,-265.79 98.72,-356.1l1182.26 366.4 1700.22 322.97c101.99,-15.35 201.06,-15.79 295.26,8.13l232.72 92.31 391.84 167.04 1449.35 -117.84 35.36 239.59 -683.46 111.91 620.6 135.53 -62.85 227.82 -871.14 -41.01 -309.76 17.11 -420.44 183.93 -823.06 547.63 -195.13 -245.53 -235.95 -26.16 -487.03 31.44z"/>
  <path class="fil0 str0" d="M5105.4 2544.19l-663.96 59.97 -227.84 -164.95c-115.35,-90.35 -259.7,-137.5 -439.77,-131.23 -497.6,21.35 -485.6,461.14 -252.42,789.07 23.25,53.91 21.47,104.62 2.88,153.25 -57.72,95.36 -144.65,164.69 -249.51,218.14l-689.23 233.57 -349.6 -439.92c-113.71,-365.13 -70.19,-997.5 212.1,-1280.48 147.48,-115.91 304.41,-216.64 475.28,-294.58l-345.65 -1048.71c80.22,-142.96 239.3,-194.89 455.62,-180.7l290.66 777.7 227.81 -1194.05c86.82,-47 382,-73.63 514.53,35.36l11.79 978.02 113.91 -789.49c107.18,-6 204.42,16.42 290.64,70.69l-70.69 926.96c-29.49,77.25 300.46,170.21 400.63,326.02 82.65,93.14 151.81,201.47 192.48,341.7 76.95,219.02 117.61,426.02 100.33,613.63z"/>
  <path class="fil2 str0" d="M2219.23 3223.83c-312.51,-175.65 -691.89,-194.53 -988.68,-150.21 111.94,-1280.32 363.62,-1015.25 -86.39,-2435.23 160.03,-149.64 378.13,-232.62 679.52,-219.94 184.2,398.44 258.04,1134.36 522.87,1040.18 176.41,-89.81 337.63,-149.07 482.61,-176.09l94.18 404.49c-258.9,107.71 -479.88,299.28 -570.79,409.69 -125.8,247.53 -234.88,638.1 -133.31,1127.1z"/>
  <ellipse class="fil1 str0" transform="matrix(3.05236 -0.422498 0.405363 3.18139 6069.9 2587.33)" rx="12.59" ry="38.16"/>
  <ellipse class="fil1 str0" transform="matrix(2.97394 0.798085 -0.798085 2.97394 5996.75 3067.72)" rx="12.59" ry="38.16"/>
  <path class="fil3 str0" d="M2585.76 3597.29c226.29,67.7 465.27,-85.15 759.07,46.68 114.14,51.21 174.7,195.69 218.99,217.51 4.48,2.2 1132.8,-937.74 1613.66,-690.41 361.21,185.8 287.99,894.86 655.79,1624.13 41.98,83.22 107.45,209.67 140.14,293.05 115.14,293.6 191.86,523.52 221.64,786.39 14.85,209.47 12.85,447.17 -47.15,667.73 -347.76,1244.3 -1346.44,1486.78 -1771.39,1571.08 -1192.73,-9.32 -2317.75,-1109.14 -3092.86,-2173.48 -145.25,-199.46 -480.53,-401.36 -590.12,-563.76 -753.06,-1116.07 91.8,-2943.22 1418.35,-2286.27 136.99,67.83 406.13,487.09 473.89,507.36z"/>
  <path class="fil4 str0" d="M2705.28 4098.28c58.18,55.52 141.36,84.76 205.69,28.86 -101.12,16.63 -132.92,-23.11 -173.69,-61.52 -39.69,-41.77 -80.66,-77.79 -178.9,-181.25 -25.72,-7.84 -44.39,-146.49 -6.81,-167.42 213.78,-119.06 1387.56,-187.79 799.58,659.4 -31.26,53.38 -38.3,66.87 -64.86,70.84 -52.96,7.95 -254.51,-151.56 -299.59,-189.46 -40.12,-33.72 -54.29,-83.76 -63.26,-123.92 -3.12,1.32 -8.89,96.85 21.99,148.56 30.31,50.76 258.85,218.77 318.59,235.52 83.82,26.99 46.91,131.13 97.74,207.47 146.58,220.15 163.11,1432.95 214.63,1845.59 228.62,1831.29 -1267.79,303.39 -1684.6,-301.71 -194.5,-260.54 -1633.46,-1451.3 -1192.33,-1735.32 158.1,-101.83 357.83,-171.1 525.3,-167.03 137.8,3.36 267.33,26.52 363.59,128.46 -59.11,-145.09 -218.01,-181.57 -370.95,-182.29 -257.52,-1.16 -551.01,110.71 -553.39,100.08 -357.5,-1609.34 1545.86,-1507.45 1795.53,-774.04 19.62,57.66 48.07,155.31 -15.79,186.51 -135.71,66.27 -381.61,145.57 -613.04,331.88 -96.05,77.32 -173.27,119.53 -195.8,331.82 78.73,-184.11 124.21,-208.31 236.05,-288.88 171.85,-123.82 371.97,-202.37 589.35,-243.34 68.67,-12.95 227.16,124.2 244.97,141.2z"/>
  <path class="fil5 str0" d="M4507.4 4274.53c13.28,7.78 13.89,21.97 8.49,27.4 -36.46,42.81 -166.97,230.75 -203.7,245.39 -50.06,19.96 -135.63,9.03 -199.64,-6 31.74,28.83 137.5,79.12 223.01,33.17 57.25,-30.73 161.9,-179.3 211.63,-236.63 26.34,-30.34 23.76,-28.36 60.84,-5.02 44.38,27.91 98.75,66.24 150.91,106 57.06,43.47 111.6,88.8 147.74,124.11 -10.69,-38.48 -37.86,-74.47 -116.35,-159.26 -32.1,-34.7 -69.68,-69.8 -111.14,-99.22 -101.92,-72.36 -236.18,-177.07 -359.95,-225.92 -502.42,-198.32 -627.24,-123.21 -507.56,-271.72 175.71,-218.01 963.83,-825.94 1364.4,-482.02 351,301.35 270.92,668.17 388.79,1065.39 12.11,41.12 19.45,51.31 -26.55,44.89 -126.33,-17.61 -339.09,1.1 -451.73,26.25 -75.12,16.78 -146.38,56.29 -167.1,103.2 48.81,-33.82 116.09,-41.24 177.1,-54.92 85.78,-19.27 473.94,-48.81 497.66,-4.96 52.11,96.34 108.94,217.06 162.65,355.08 125.38,322.32 218.48,765.8 206.2,1196.6 -48.31,1693.31 -1090.57,1997.07 -1803.08,830.19 -311.12,-509.51 -326.92,-1479.47 -409.6,-1948.82 -1.34,-7.63 -1.51,-17.75 14.37,-26.06 77.44,-40.53 218.22,-107.48 282.59,-164.66 51.36,-45.64 93.96,-113.62 43.11,-199.1 13.45,73.1 -25.63,126.21 -70.34,162.43 -63,50.98 -200.05,109.17 -275.91,148.9 -9.38,4.93 -18.52,5.73 -22.68,-7.01 -300.58,-916.88 34.03,-987.88 785.83,-577.68z"/>
  <ellipse class="fil1 str0" transform="matrix(0.209165 9.39748 -12.7428 0.154253 4528.07 8631.9)" rx="12.59" ry="38.16"/>
  <ellipse class="fil1 str0" transform="matrix(0.209165 9.39748 -12.7428 0.154253 1136.52 7302.38)" rx="12.59" ry="38.16"/>
  <ellipse class="fil1 str0" transform="matrix(0.209165 9.39748 -12.7428 0.154253 1296.61 4059.85)" rx="12.59" ry="38.16"/>
  <path class="fil1 str0" d="M2112.7 3269.13c-76.27,41.45 -239.63,69.1 -435.16,71.44 -268.6,3.2 -487.51,-47.12 -488.97,-112.44 -0.36,-15.52 11.61,-30.52 33.64,-44.35 274.49,-79.64 647.5,-54.58 890.49,85.35z"/>
  <ellipse class="fil1 str0" transform="matrix(-4.08009 0.121535 -0.273383 -2.76732 5071.5 3711.65)" rx="12.59" ry="38.16"/>
  <ellipse class="fil1 str0" transform="matrix(-4.08009 0.121535 -0.273383 -2.76732 5071.5 3994.45)" rx="12.59" ry="38.16"/>
  <ellipse class="fil1 str0" transform="matrix(-4.08009 0.121535 -0.273383 -2.76732 4670.87 3639)" rx="12.59" ry="38.16"/>
  <ellipse class="fil1 str0" transform="matrix(-4.08009 0.121535 -0.273383 -2.76732 4670.87 3921.8)" rx="12.59" ry="38.16"/>
  <g>
   <path class="fil6" d="M4950.31 3881.03l-19.23 -1.48 0.81 -9.69 0.93 -9.41 1.05 -9.12 1.18 -8.85 1.34 -8.58 1.49 -8.3 1.67 -8.03 1.85 -7.78 2.05 -7.52 2.27 -7.27 2.49 -7 2.74 -6.77 2.98 -6.51 3.25 -6.25 3.54 -6.01 3.84 -5.75 4.12 -5.47 4.44 -5.21 4.76 -4.93 5.07 -4.65 5.4 -4.38 5.73 -4.07 6.05 -3.8 6.39 -3.52 6.71 -3.24 7.07 -2.96 7.4 -2.69 7.75 -2.44 8.12 -2.18 8.49 -1.93 8.86 -1.69 9.26 -1.46 2.7 19.09 -8.66 1.36 -8.22 1.57 -7.79 1.77 -7.37 1.97 -6.94 2.19 -6.57 2.38 -6.16 2.59 -5.8 2.8 -5.45 3 -5.1 3.2 -4.78 3.41 -4.49 3.63 -4.18 3.84 -3.93 4.08 -3.68 4.32 -3.44 4.56 -3.22 4.82 -3 5.1 -2.79 5.38 -2.61 5.68 -2.41 5.96 -2.22 6.27 -2.05 6.58 -1.88 6.88 -1.72 7.2 -1.55 7.51 -1.42 7.84 -1.26 8.14 -1.14 8.47 -1.01 8.79 -0.89 9.1 -0.79 9.44zm-13.5 49.84l-35.4 -103.97 2.6 1.51 2.59 1.43 2.61 1.34 2.61 1.26 2.62 1.18 2.63 1.09 2.63 1.01 2.64 0.93 2.64 0.84 2.66 0.75 2.65 0.67 2.67 0.58 2.67 0.5 2.68 0.42 2.69 0.33 2.69 0.25 2.7 0.16 2.71 0.09 2.71 0 2.72 -0.1 2.73 -0.16 2.73 -0.26 2.74 -0.34 2.75 -0.42 2.75 -0.51 2.76 -0.59 2.77 -0.68 2.77 -0.76 2.78 -0.84 2.79 -0.94 2.79 -1.01 2.8 -1.1 0 0 -50.88 97.34z"/>
  </g>
  <g>
   <path class="fil6" d="M4942.03 4165.27l-19.23 -1.48 0.81 -9.69 0.93 -9.41 1.05 -9.12 1.18 -8.85 1.34 -8.58 1.49 -8.3 1.67 -8.03 1.85 -7.78 2.05 -7.52 2.27 -7.27 2.49 -7 2.74 -6.77 2.98 -6.51 3.25 -6.25 3.54 -6.01 3.84 -5.75 4.12 -5.47 4.44 -5.21 4.76 -4.93 5.07 -4.65 5.4 -4.38 5.73 -4.07 6.05 -3.8 6.39 -3.52 6.71 -3.24 7.07 -2.96 7.4 -2.69 7.75 -2.44 8.12 -2.18 8.49 -1.93 8.86 -1.69 9.26 -1.46 2.7 19.09 -8.66 1.36 -8.22 1.57 -7.79 1.77 -7.37 1.97 -6.94 2.19 -6.57 2.38 -6.16 2.59 -5.8 2.8 -5.45 3 -5.1 3.2 -4.78 3.41 -4.49 3.63 -4.18 3.84 -3.93 4.08 -3.68 4.32 -3.44 4.56 -3.22 4.82 -3 5.1 -2.79 5.38 -2.61 5.68 -2.41 5.96 -2.22 6.27 -2.05 6.58 -1.88 6.88 -1.72 7.2 -1.55 7.51 -1.42 7.84 -1.26 8.14 -1.14 8.47 -1.01 8.79 -0.89 9.1 -0.79 9.44zm-13.5 49.84l-35.4 -103.97 2.6 1.51 2.59 1.43 2.61 1.34 2.61 1.26 2.62 1.18 2.63 1.09 2.63 1.01 2.64 0.93 2.64 0.84 2.66 0.75 2.65 0.67 2.67 0.58 2.67 0.5 2.68 0.42 2.69 0.33 2.69 0.25 2.7 0.16 2.71 0.09 2.71 0 2.72 -0.1 2.73 -0.16 2.73 -0.26 2.74 -0.34 2.75 -0.42 2.75 -0.51 2.76 -0.59 2.77 -0.68 2.77 -0.76 2.78 -0.84 2.79 -0.94 2.79 -1.01 2.8 -1.1 0 0 -50.88 97.34z"/>
  </g>
  <g>
   <path class="fil6" d="M4813.46 3795.99l-19.23 1.48 -0.79 -9.44 -0.89 -9.1 -1.01 -8.79 -1.14 -8.47 -1.26 -8.14 -1.42 -7.84 -1.55 -7.51 -1.72 -7.2 -1.88 -6.88 -2.05 -6.58 -2.22 -6.27 -2.41 -5.96 -2.61 -5.68 -2.79 -5.38 -3 -5.1 -3.22 -4.82 -3.44 -4.56 -3.68 -4.32 -3.93 -4.08 -4.18 -3.84 -4.49 -3.63 -4.78 -3.41 -5.1 -3.2 -5.45 -3 -5.8 -2.8 -6.16 -2.59 -6.57 -2.38 -6.94 -2.19 -7.37 -1.97 -7.79 -1.77 -8.22 -1.57 -8.66 -1.36 2.7 -19.09 9.26 1.46 8.86 1.69 8.49 1.93 8.12 2.18 7.75 2.44 7.4 2.69 7.07 2.96 6.71 3.24 6.39 3.52 6.05 3.8 5.73 4.07 5.4 4.38 5.07 4.65 4.76 4.93 4.44 5.21 4.12 5.47 3.84 5.75 3.54 6.01 3.25 6.25 2.98 6.51 2.74 6.77 2.49 7 2.27 7.27 2.05 7.52 1.85 7.78 1.67 8.03 1.49 8.3 1.34 8.58 1.18 8.85 1.05 9.12 0.93 9.41 0.81 9.69zm-5.73 51.33l-50.88 -97.34 2.8 1.1 2.79 1.01 2.79 0.94 2.78 0.84 2.77 0.76 2.77 0.68 2.76 0.59 2.75 0.51 2.75 0.42 2.74 0.34 2.73 0.26 2.73 0.16 2.72 0.1 2.71 0 2.71 -0.09 2.7 -0.16 2.69 -0.25 2.69 -0.33 2.68 -0.42 2.67 -0.5 2.67 -0.58 2.65 -0.67 2.66 -0.75 2.64 -0.84 2.64 -0.93 2.63 -1.01 2.63 -1.09 2.62 -1.18 2.61 -1.26 2.61 -1.34 2.59 -1.43 2.6 -1.51 0 0 -35.4 103.97z"/>
  </g>
  <g>
   <path class="fil6" d="M4811.26 4089.58l-19.23 1.48 -0.79 -9.44 -0.89 -9.1 -1.01 -8.79 -1.14 -8.47 -1.26 -8.14 -1.42 -7.84 -1.55 -7.51 -1.72 -7.2 -1.88 -6.88 -2.05 -6.58 -2.22 -6.27 -2.41 -5.96 -2.61 -5.68 -2.79 -5.38 -3 -5.1 -3.22 -4.82 -3.44 -4.56 -3.68 -4.32 -3.93 -4.08 -4.18 -3.84 -4.49 -3.63 -4.78 -3.41 -5.1 -3.2 -5.45 -3 -5.8 -2.8 -6.16 -2.59 -6.57 -2.38 -6.94 -2.19 -7.37 -1.97 -7.79 -1.77 -8.22 -1.57 -8.66 -1.36 2.7 -19.09 9.26 1.46 8.86 1.69 8.49 1.93 8.12 2.18 7.75 2.44 7.4 2.69 7.07 2.96 6.71 3.24 6.39 3.52 6.05 3.8 5.73 4.07 5.4 4.38 5.07 4.65 4.76 4.93 4.44 5.21 4.12 5.47 3.84 5.75 3.54 6.01 3.25 6.25 2.98 6.51 2.74 6.77 2.49 7 2.27 7.27 2.05 7.52 1.85 7.78 1.67 8.03 1.49 8.3 1.34 8.58 1.18 8.85 1.05 9.12 0.93 9.41 0.81 9.69zm-5.73 51.33l-50.88 -97.34 2.8 1.1 2.79 1.01 2.79 0.94 2.78 0.84 2.77 0.76 2.77 0.68 2.76 0.59 2.75 0.51 2.75 0.42 2.74 0.34 2.73 0.26 2.73 0.16 2.72 0.1 2.71 0 2.71 -0.09 2.7 -0.16 2.69 -0.25 2.69 -0.33 2.68 -0.42 2.67 -0.5 2.67 -0.58 2.65 -0.67 2.66 -0.75 2.64 -0.84 2.64 -0.93 2.63 -1.01 2.63 -1.09 2.62 -1.18 2.61 -1.26 2.61 -1.34 2.59 -1.43 2.6 -1.51 0 0 -35.4 103.97z"/>
  </g>
  <g>
   <path class="fil7" d="M1362.18 4246.76l-19.23 1.48 -1.2 -14.36 -1.34 -13.63 -1.49 -12.93 -1.67 -12.26 -1.85 -11.58 -2.06 -10.92 -2.27 -10.3 -2.49 -9.67 -2.74 -9.06 -2.98 -8.5 -3.24 -7.94 -3.52 -7.41 -3.79 -6.9 -4.09 -6.43 -4.41 -5.98 -4.75 -5.59 -5.11 -5.22 -5.5 -4.87 -5.93 -4.56 -6.38 -4.27 -6.87 -3.99 -7.38 -3.74 -7.93 -3.51 -8.48 -3.29 -9.05 -3.07 -9.65 -2.86 -10.26 -2.69 -10.9 -2.52 -11.52 -2.36 -12.19 -2.23 -12.85 -2.11 -13.54 -2.01 2.7 -19.09 13.81 2.04 13.18 2.17 12.55 2.29 11.97 2.46 11.4 2.63 10.84 2.84 10.29 3.06 9.81 3.32 9.29 3.6 8.79 3.9 8.32 4.22 7.89 4.59 7.41 4.97 6.95 5.35 6.52 5.76 6.07 6.2 5.62 6.61 5.2 7.06 4.78 7.51 4.37 7.95 3.98 8.41 3.63 8.88 3.29 9.35 2.97 9.85 2.68 10.38 2.4 10.92 2.16 11.47 1.93 12.06 1.73 12.66 1.53 13.3 1.38 13.94 1.21 14.61zm-5.73 51.33l-50.88 -97.34 2.8 1.1 2.79 1.01 2.79 0.94 2.78 0.84 2.77 0.76 2.77 0.68 2.76 0.59 2.75 0.51 2.75 0.42 2.74 0.34 2.73 0.26 2.73 0.16 2.72 0.1 2.71 0 2.71 -0.09 2.7 -0.16 2.69 -0.25 2.69 -0.33 2.68 -0.42 2.67 -0.5 2.67 -0.58 2.65 -0.67 2.66 -0.75 2.64 -0.84 2.64 -0.93 2.63 -1.01 2.63 -1.09 2.62 -1.18 2.61 -1.26 2.61 -1.34 2.59 -1.43 2.6 -1.51 0 0 -35.4 103.97z"/>
  </g>
  <g>
   <path class="fil7" d="M1571.62 3496.65l-19.23 1.41 -1.22 -16.76 -1.12 -15.37 -1.03 -14.05 -0.94 -12.83 -0.86 -11.7 -0.79 -10.65 -0.72 -9.69 -0.67 -8.83 -0.63 -8.05 -0.57 -7.37 -0.54 -6.75 -0.51 -6.24 -0.49 -5.81 -0.48 -5.5 -0.47 -5.24 -0.48 -5.09 -0.47 -5.01 -0.51 -5.04 -0.53 -5.18 -0.55 -5.36 -0.61 -5.67 -0.65 -6.05 -0.7 -6.52 -0.77 -7.1 -0.83 -7.72 -0.92 -8.47 -0.99 -9.3 -1.09 -10.2 -1.2 -11.21 -1.3 -12.3 -1.41 -13.47 -1.53 -14.75 19.19 -1.99 1.53 14.73 1.41 13.47 1.28 12.28 1.2 11.19 1.09 10.2 0.99 9.29 0.92 8.47 0.83 7.72 0.77 7.08 0.7 6.54 0.65 6.06 0.61 5.69 0.57 5.42 0.53 5.2 0.51 5.1 0.49 5.09 0.48 5.13 0.47 5.31 0.48 5.53 0.51 5.87 0.51 6.3 0.54 6.79 0.57 7.39 0.63 8.07 0.67 8.85 0.72 9.71 0.79 10.65 0.86 11.72 0.94 12.83 1.03 14.05 1.12 15.37 1.22 16.76zm-5.93 51.28l-50.47 -97.49 2.79 1.11 2.79 1.03 2.78 0.94 2.77 0.86 2.77 0.77 2.77 0.68 2.75 0.61 2.75 0.52 2.74 0.43 2.74 0.35 2.73 0.27 2.73 0.18 2.71 0.1 2.72 0.02 2.7 -0.08 2.7 -0.15 2.69 -0.24 2.69 -0.32 2.68 -0.4 2.67 -0.49 2.67 -0.58 2.66 -0.66 2.65 -0.75 2.65 -0.83 2.64 -0.91 2.64 -1 2.63 -1.08 2.62 -1.17 2.61 -1.24 2.61 -1.34 2.61 -1.42 2.59 -1.49 0 0 -35.78 103.78z"/>
  </g>
 </g>
</svg>
